<svg width="200" height="193" viewBox="0 0 200 193" fill="none" xmlns="http://www.w3.org/2000/svg">
<g clip-path="url(#clip0_1_335)">
<path d="M135.31 125.383C109.646 125.383 88.7709 104.485 88.7709 78.8034C88.7709 66.2737 93.7455 54.8922 101.816 46.5139C98.0287 46.2482 84.2823 46.0527 75.846 56.1406C65.987 67.9233 79.7235 78.2118 70.641 91.0674C70.641 91.0674 78.962 89.097 78.7516 80.6235C78.5462 72.145 78.0403 67.0759 80.5801 67.0057C88.5705 66.7801 86.2561 94.527 71.0267 98.7036C55.7974 102.88 55.2464 121.682 55.2464 121.682C55.2464 121.682 58.192 108.556 67.6202 107.704C75.0244 107.032 77.1435 109.233 77.1736 113.088C77.1986 116.518 69.3635 144.586 39.7966 144.104C33.1538 143.784 27.7785 137.301 16.0409 143.302C16.0409 143.302 31.4055 144.104 28.7504 148.366C26.0902 152.623 10.9461 147.454 8.28597 137.972C6.11179 130.216 8.05553 121.843 9.7538 118.729C9.27287 116.593 8.85707 114.437 8.59657 113.018C5.49059 118.544 -8.81194 146.411 8.12566 160.791C20.7249 171.49 37.9681 166.707 48.3782 162.315C58.7882 157.923 76.2869 149.675 79.7185 151.921C83.1501 154.172 77.5042 163.493 60.3362 164.937C43.1681 166.381 33.3993 178.916 33.3993 178.916C33.3993 178.916 45.6078 166.812 62.5554 167.991C79.4981 169.169 95.9998 162.205 97.3324 153.636C98.6599 145.067 113.058 135.105 120.813 137.14C128.562 139.176 116.715 150.638 109.185 150.101C109.185 150.101 120.412 151.936 129.008 143.297C135.957 136.318 134.284 129.038 143.586 124.641C140.901 125.127 138.141 125.393 135.315 125.393L135.31 125.383Z" fill="#DBA527"/>
<path d="M135.31 122.169C159.201 122.169 178.639 102.715 178.639 78.8034C178.639 54.8922 159.201 35.4382 135.31 35.4382C111.42 35.4382 91.9821 54.8922 91.9821 78.8034C91.9821 102.715 111.42 122.169 135.31 122.169ZM175.839 78.7984C175.839 87.5527 173.043 95.6602 168.314 102.299H158.069C155.705 102.299 153.48 101.175 152.073 99.2752L148.055 93.8451C146.622 91.9048 146.211 89.3878 146.958 87.0964L149.693 78.6681C150.4 76.497 152.058 74.7673 154.197 73.9751L160.459 71.6536C162.798 70.7862 165.418 71.1472 167.437 72.6163L175.833 78.7232C175.833 78.7533 175.833 78.7784 175.833 78.8034L175.839 78.7984ZM136.713 52.2849C136.713 49.8933 137.855 47.6471 139.789 46.2432L147.99 40.2817C156.04 42.944 162.984 48.0582 167.923 54.7468L164.922 63.9824C164.216 66.1534 162.558 67.8832 160.419 68.6754L153.736 71.1522C151.396 72.0196 148.776 71.6586 146.758 70.1896L139.784 65.1205C137.85 63.7166 136.708 61.4704 136.708 59.0788V52.2799L136.713 52.2849ZM139.759 92.4212C142.124 92.4212 144.348 93.5443 145.756 95.4446L149.738 100.83C151.176 102.77 151.582 105.287 150.835 107.578L147.634 117.436C143.747 118.679 139.604 119.361 135.305 119.361C131.007 119.361 126.944 118.699 123.087 117.471L119.896 107.638C119.159 105.362 119.555 102.87 120.958 100.935L124.92 95.4847C126.323 93.5543 128.568 92.4112 130.952 92.4112H139.754L139.759 92.4212ZM122.636 40.2817L130.837 46.2432C132.771 47.6471 133.913 49.8933 133.913 52.2849V59.0838C133.913 61.4754 132.771 63.7216 130.837 65.1255L123.758 70.2748C121.754 71.7338 119.159 72.0999 116.83 71.2525L110.508 68.9612C108.344 68.179 106.665 66.4392 105.954 64.2481L102.818 54.5863C107.747 47.973 114.651 42.924 122.636 40.2817ZM94.7875 79.019L103.309 72.8219C105.313 71.3628 107.908 70.9968 110.237 71.8441L116.414 74.0854C118.578 74.8675 120.257 76.6074 120.968 78.7984L123.693 87.1917C124.43 89.468 124.034 91.9599 122.631 93.8953L118.799 99.1649C117.396 101.095 115.152 102.238 112.767 102.238H102.257C97.5979 95.6702 94.8326 87.668 94.7875 79.0291V79.019Z" fill="#00204F"/>
<path d="M103.579 0C50.4171 0 7.16381 43.29 7.16381 96.4975C7.16381 111.84 10.7657 126.355 17.1631 139.251C18.2001 138.835 19.227 138.489 20.239 138.228C13.9318 125.663 10.375 111.489 10.375 96.4975C10.375 45.0599 52.1855 3.21391 103.579 3.21391C154.973 3.21391 196.784 45.0599 196.784 96.4975C196.784 147.935 154.973 189.781 103.579 189.781C83.6661 189.781 65.1955 183.494 50.0313 172.809C48.7739 173.225 47.5816 173.691 46.4595 174.193C62.4603 186.006 82.2133 193 103.579 193C156.742 193 199.995 149.71 199.995 96.5025C199.995 43.295 156.747 0 103.579 0Z" fill="#00204F"/>
<path d="M103.579 4.82337C52.992 4.82337 11.9831 45.8671 11.9831 96.4975C11.9831 111.389 15.5349 125.448 21.827 137.877C23.0444 137.657 24.2517 137.536 25.454 137.536C29.2062 137.536 32.202 138.604 34.8471 139.547C36.7207 140.214 38.3388 140.79 39.9068 140.881C40.1223 140.881 40.3377 140.881 40.5481 140.881C45.718 140.881 50.4071 139.933 54.6051 138.073C45.0968 126.862 39.3558 112.351 39.3558 96.4975C39.3558 60.9991 68.1111 32.2193 103.579 32.2193C109.541 32.2193 115.307 33.0366 120.783 34.5558C125.356 33.0466 130.236 32.2193 135.31 32.2193C160.975 32.2193 181.85 53.1172 181.85 78.7984C181.85 93.068 175.403 105.848 165.278 114.397C164.963 115.49 164.607 116.568 164.236 117.636L163.906 118.564C154.908 143.192 131.303 160.771 103.584 160.771C101.49 160.771 99.4214 160.665 97.3775 160.47C95.3235 162.846 92.3478 164.987 88.5555 166.752C82.2233 169.7 74.3331 171.32 66.3377 171.32C65.0001 171.32 63.6576 171.275 62.335 171.18C61.6387 171.129 60.9323 171.104 60.231 171.104C57.2903 171.104 54.515 171.541 51.96 172.227C66.6583 182.285 84.4326 188.167 103.584 188.167C154.172 188.167 195.186 147.123 195.186 96.4875C195.186 45.8521 154.172 4.82337 103.579 4.82337Z" fill="#00204F"/>
<path d="M157.398 121.647C147.915 141.893 127.36 155.957 103.584 155.957C102.412 155.957 101.245 155.917 100.088 155.852C99.737 156.92 99.211 157.963 98.5347 158.966C100.203 159.101 101.886 159.171 103.584 159.171C129.975 159.171 152.589 142.741 161.791 119.571L157.403 121.647H157.398Z" fill="#00204F"/>
<path d="M58.9585 135.706C49.7608 125.232 44.1701 111.509 44.1701 96.4975C44.1701 63.7116 70.8214 37.0377 103.579 37.0377C106.856 37.0377 110.067 37.3084 113.198 37.8198C114.781 36.9625 116.424 36.2003 118.107 35.5285C113.443 34.4154 108.579 33.8238 103.579 33.8238C69.0529 33.8238 40.9589 61.9367 40.9589 96.4975C40.9589 112.091 46.6799 126.37 56.1281 137.351C57.0999 136.854 58.0418 136.308 58.9585 135.706Z" fill="#00204F"/>
<path d="M22.0525 120.85L19.8733 112.026L22.5484 111.364L23.9161 116.909L27.2124 116.097L25.9299 110.912L28.585 110.256L29.8625 115.44L35.6587 114.006L36.4652 117.28L22.0425 120.845L22.0525 120.85Z" fill="white"/>
<path d="M26.0602 86.2792C30.9296 86.4446 33.78 89.4981 33.6348 93.8401C33.4845 98.2473 30.0729 100.714 25.8448 100.574C21.3962 100.423 18.165 97.4652 18.3153 93.078C18.4706 88.5154 21.9673 86.1388 26.0652 86.2792H26.0602ZM25.8949 97.0239C28.8005 97.1242 30.8995 95.8256 30.9746 93.5744C31.0498 91.3031 28.9357 89.9293 26.0502 89.834C23.385 89.7438 21.0505 90.9421 20.9704 93.2585C20.8952 95.5298 23.0093 96.9237 25.8949 97.0239Z" fill="white"/>
<path d="M32.6378 63.3456C37.2267 64.9751 39.0251 68.7506 37.5723 72.8469C36.0995 77.0034 32.0968 78.3221 28.1091 76.9082C23.9111 75.4191 21.7268 71.6185 23.1947 67.4821C24.7226 63.1801 28.7754 61.9718 32.6378 63.3456ZM29.2313 73.5388C31.9766 74.5115 34.3612 73.9099 35.1126 71.789C35.8741 69.6481 34.271 67.6977 31.5508 66.73C29.0359 65.8375 26.4509 66.2737 25.6744 68.4598C24.913 70.6007 26.506 72.5712 29.2313 73.5388Z" fill="white"/>
<path d="M35.303 50.134L33.0136 53.408L30.7041 51.7886L37.2517 42.4276L39.5612 44.0471L37.2367 47.3713L47.0957 54.2805L45.162 57.0481L35.303 50.139V50.134Z" fill="white"/>
<path d="M45.2722 34.0745C45.8383 33.3725 47.1207 32.1291 48.4082 31.0511C49.9812 29.7374 51.0733 29.0806 52.3107 28.8801C53.4579 28.6394 54.6853 28.9402 55.547 29.9731C56.3936 30.9909 56.594 32.4349 55.7023 33.9792L55.7323 34.0143C57.3304 33.2823 59.1138 33.4577 60.3462 34.9318C61.2078 35.9647 61.4132 37.173 61.1828 38.3413C60.9023 39.695 59.8252 41.2243 57.5608 43.1195C56.2934 44.1775 55.2714 44.8844 54.6252 45.2805L45.2772 34.0694L45.2722 34.0745ZM51.4691 36.3107L52.3157 35.6037C53.6683 34.4756 53.9338 33.3073 53.2275 32.46C52.5061 31.5976 51.4641 31.6878 50.2968 32.6656C49.7358 33.1318 49.4452 33.4327 49.2548 33.6533L51.4741 36.3107H51.4691ZM55.6922 41.3747C55.9728 41.1942 56.2784 40.9435 56.7192 40.5725C57.8865 39.5948 58.5527 38.2962 57.5508 37.0928C56.589 35.9396 55.1762 36.3457 53.8888 37.4187L53.0071 38.1558L55.6922 41.3747Z" fill="white"/>
<path d="M71.5878 29.1308L72.1639 33.0466L68.9778 34.4605L67.1142 19.0227L71.147 17.2378L81.3767 28.9653L78.0703 30.4293L75.4803 27.406L71.5878 29.1308ZM74.0175 25.3051L71.8934 22.7982C71.2973 22.1013 70.6059 21.1988 70.0499 20.4818L70.0098 20.5018C70.1651 21.3993 70.4206 22.5174 70.5458 23.3999L71.0167 26.6439L74.0175 25.3102V25.3051Z" fill="white"/>
<path d="M86.762 12.3793L90.0935 11.8679L91.927 23.7709L97.7632 22.8734L98.194 25.6661L89.0214 27.0801L86.762 12.3843V12.3793Z" fill="white"/>
<path d="M107.492 10.7247L110.848 11.0306L109.751 23.0238L115.633 23.5653L115.377 26.3781L106.134 25.5308L107.492 10.7247Z" fill="white"/>
<path d="M97.1871 167.033L100.559 167.153L100.138 179.192L106.039 179.397L105.939 182.22L96.6661 181.894L97.1871 167.038V167.033Z" fill="white"/>
<path d="M124.364 173.25L119.014 174.358L119.73 177.813L125.707 176.574L126.268 179.277L116.985 181.202L113.969 166.642L122.947 164.782L123.508 167.484L117.832 168.663L118.458 171.686L123.813 170.578L124.369 173.255L124.364 173.25Z" fill="white"/>
<path d="M138.652 170.573L139.423 174.459L136.312 176.028L133.677 160.705L137.615 158.72L148.416 169.921L145.19 171.551L142.449 168.658L138.652 170.573ZM140.886 166.627L138.642 164.225C138.011 163.558 137.274 162.691 136.683 162.004L136.643 162.024C136.843 162.912 137.154 164.015 137.324 164.892L137.956 168.106L140.886 166.627Z" fill="white"/>
<path d="M166.04 154.759C165.514 155.717 164.391 157.401 162.944 158.725C160.94 160.555 159.031 161.372 157.133 161.317C155.259 161.297 153.4 160.365 151.943 158.74C148.631 155.075 149.378 150.567 152.975 147.278C154.392 145.985 155.735 145.263 156.511 145.032L157.804 147.494C156.962 147.785 156.02 148.256 154.818 149.359C152.749 151.249 152.258 153.851 154.427 156.228C156.491 158.494 159.126 158.534 161.165 156.674C161.736 156.153 162.132 155.672 162.237 155.396L160.143 153.099L158.45 154.649L156.682 152.708L160.77 148.973L166.045 154.754L166.04 154.759Z" fill="white"/>
<path d="M163.244 135.235L170.563 139.662C172.753 140.986 174.366 140.83 175.257 139.356C176.169 137.847 175.613 136.378 173.369 135.019L166.05 130.592L167.783 127.724L174.912 132.036C178.834 134.408 179.506 137.521 177.497 140.845C175.558 144.054 172.642 144.872 168.59 142.415L161.496 138.123L163.239 135.235H163.244Z" fill="white"/>
<path d="M181.58 113.836L180.077 119.095L183.468 120.063L185.146 114.187L187.797 114.944L185.197 124.064L170.914 119.983L173.429 111.158L176.079 111.915L174.486 117.496L177.452 118.343L178.954 113.083L181.585 113.836H181.58Z" fill="white"/>
</g>
<defs>
<clipPath id="clip0_1_335">
<rect width="200" height="193" fill="white"/>
</clipPath>
</defs>
</svg>
