<svg width="46" height="46" viewBox="0 0 46 46" fill="none" xmlns="http://www.w3.org/2000/svg">
<g filter="url(#filter0_d_1_622)">
<rect x="2" y="2" width="42" height="42" rx="21" fill="white" shape-rendering="crispEdges"/>
<path d="M25.6957 15.9585C25.8965 15.4058 26.0218 14.9294 26.0218 14.4772C26.0218 14.4017 25.9969 14.3519 25.9969 14.2763C25.9969 14.2008 25.972 14.1004 25.9463 14C24.6907 14.2763 23.8127 14.8282 23.26 15.6315C22.7073 16.41 22.4318 17.3386 22.4061 18.4183C22.8583 18.3677 23.2343 18.2929 23.5106 18.2174C23.8874 18.0921 24.289 17.8407 24.6907 17.4639C25.143 17.0116 25.494 16.4598 25.6948 15.9577L25.6957 15.9585ZM24.2641 18.4689C23.5106 18.7203 22.9836 18.8207 22.7073 18.8207C22.4816 18.8207 22.0044 18.7203 21.226 18.5195C20.4725 18.2937 19.8451 18.1676 19.2932 18.1676C18.0633 18.1676 17.0334 18.6946 16.2052 19.7494C15.4019 20.8041 15.0002 22.1344 15.0002 23.7909C15.0002 25.5734 15.5272 27.3809 16.582 29.2382C17.6616 31.0963 18.7662 32 19.8459 32C20.1977 32 20.6492 31.8747 21.2766 31.6481C21.8542 31.4224 22.3562 31.2963 22.8077 31.2963C23.2592 31.2963 23.8119 31.3967 24.4393 31.6224C25.0924 31.8482 25.5944 31.9486 25.9704 31.9486C26.899 31.9486 27.8285 31.2457 28.7571 29.8648C29.0584 29.4125 29.3347 28.9361 29.5604 28.4839C29.7613 28.0573 29.9372 27.605 30.0874 27.1785C29.4094 26.9776 28.8318 26.5005 28.3554 25.7976C27.8783 25.0698 27.6276 24.2664 27.6276 23.3876C27.6276 22.5594 27.8534 21.8308 28.3056 21.1536C28.582 20.8017 29.0085 20.3502 29.5612 19.8731C29.3853 19.6473 29.1845 19.4208 29.0085 19.2457C28.8077 19.0698 28.6318 18.9195 28.4559 18.7934C27.753 18.3411 26.9745 18.0905 26.1214 18.0905C25.6193 18.0905 24.9919 18.2415 24.2633 18.4673L24.2641 18.4689Z" fill="#060504"/>
</g>
<defs>
<filter id="filter0_d_1_622" x="0" y="0" width="46" height="46" filterUnits="userSpaceOnUse" color-interpolation-filters="sRGB">
<feFlood flood-opacity="0" result="BackgroundImageFix"/>
<feColorMatrix in="SourceAlpha" type="matrix" values="0 0 0 0 0 0 0 0 0 0 0 0 0 0 0 0 0 0 127 0" result="hardAlpha"/>
<feOffset/>
<feGaussianBlur stdDeviation="1"/>
<feComposite in2="hardAlpha" operator="out"/>
<feColorMatrix type="matrix" values="0 0 0 0 0.0431373 0 0 0 0 0.054902 0 0 0 0 0.0705882 0 0 0 0.2 0"/>
<feBlend mode="normal" in2="BackgroundImageFix" result="effect1_dropShadow_1_622"/>
<feBlend mode="normal" in="SourceGraphic" in2="effect1_dropShadow_1_622" result="shape"/>
</filter>
</defs>
</svg>
