<svg width="110" height="121" viewBox="0 0 110 121" fill="none" xmlns="http://www.w3.org/2000/svg">
<path d="M88.4471 0.641602H22.4564C18.928 0.641602 16.0676 3.42557 16.0676 6.85977V113.287C16.0676 116.721 18.928 119.505 22.4564 119.505H88.4471C91.9756 119.505 94.8359 116.721 94.8359 113.287V6.85977C94.8359 3.42557 91.9756 0.641602 88.4471 0.641602Z" fill="#012356"/>
<path d="M88.447 120.141H22.4563C20.5933 120.131 18.81 119.404 17.4957 118.118C16.1815 116.833 15.4429 115.094 15.4412 113.281V6.85988C15.4429 5.04105 16.186 3.2972 17.5074 2.01109C18.8288 0.72498 20.6205 0.00169905 22.4892 0H88.447C90.3158 0.00169905 92.1074 0.72498 93.4288 2.01109C94.7502 3.2972 95.4934 5.04105 95.4951 6.85988V113.281C95.4934 115.1 94.7502 116.844 93.4288 118.13C92.1074 119.416 90.3158 120.139 88.447 120.141ZM22.4563 1.28342C20.943 1.29358 19.4951 1.88537 18.4281 2.92988C17.3612 3.97438 16.7615 5.38696 16.7598 6.85988V113.281C16.7615 114.759 17.3657 116.177 18.4398 117.222C19.5139 118.268 20.9702 118.856 22.4892 118.857H88.447C89.966 118.856 91.4223 118.268 92.4964 117.222C93.5705 116.177 94.1747 114.759 94.1765 113.281V6.85988C94.1747 5.38143 93.5705 3.96402 92.4964 2.9186C91.4223 1.87318 89.966 1.28512 88.447 1.28342H22.4563Z" fill="#1F1D1D"/>
<path d="M87.748 12.6416H23.155C21.3088 12.6416 19.8123 14.0982 19.8123 15.8951V102.346C19.8123 104.143 21.3088 105.6 23.155 105.6H87.748C89.5941 105.6 91.0907 104.143 91.0907 102.346V15.8951C91.0907 14.0982 89.5941 12.6416 87.748 12.6416Z" fill="#FEFEFE"/>
<path d="M87.7481 106.235H23.1353C22.0751 106.235 21.0581 105.826 20.3078 105.096C19.5575 104.367 19.135 103.378 19.1333 102.346V15.8952C19.1333 14.8621 19.5549 13.8714 20.3055 13.1409C21.056 12.4104 22.0739 12 23.1353 12H87.7481C88.8095 12 89.8275 12.4104 90.578 13.1409C91.3285 13.8714 91.7502 14.8621 91.7502 15.8952V102.346C91.7484 103.378 91.326 104.367 90.5757 105.096C89.8253 105.826 88.8084 106.235 87.7481 106.235ZM23.1353 13.2834C22.4236 13.2834 21.7411 13.5586 21.2379 14.0484C20.7346 14.5382 20.4519 15.2025 20.4519 15.8952V102.346C20.4537 103.038 20.7372 103.701 21.2402 104.189C21.7433 104.677 22.4248 104.952 23.1353 104.952H87.7481C88.4587 104.952 89.1402 104.677 89.6432 104.189C90.1463 103.701 90.4298 103.038 90.4315 102.346V15.8952C90.4315 15.2025 90.1488 14.5382 89.6456 14.0484C89.1423 13.5586 88.4598 13.2834 87.7481 13.2834H23.1353Z" fill="#1F1D1D"/>
<path d="M45.2883 8.25873C45.8563 8.25873 46.3168 7.81053 46.3168 7.25766C46.3168 6.70478 45.8563 6.25659 45.2883 6.25659C44.7203 6.25659 44.2598 6.70478 44.2598 7.25766C44.2598 7.81053 44.7203 8.25873 45.2883 8.25873Z" fill="#1F1D1D"/>
<path d="M66.6434 7.89963H50.2001C50.0252 7.89963 49.8575 7.83202 49.7339 7.71168C49.6102 7.59133 49.5408 7.42811 49.5408 7.25792C49.5408 7.08773 49.6102 6.92451 49.7339 6.80416C49.8575 6.68382 50.0252 6.61621 50.2001 6.61621H66.6434C66.8182 6.61621 66.9859 6.68382 67.1096 6.80416C67.2332 6.92451 67.3027 7.08773 67.3027 7.25792C67.3027 7.42811 67.2332 7.59133 67.1096 7.71168C66.9859 7.83202 66.8182 7.89963 66.6434 7.89963Z" fill="#1F1D1D"/>
<path d="M55.4547 116.387C57.8471 116.387 59.7864 114.499 59.7864 112.171C59.7864 109.842 57.8471 107.955 55.4547 107.955C53.0624 107.955 51.123 109.842 51.123 112.171C51.123 114.499 53.0624 116.387 55.4547 116.387Z" fill="#1F1D1D"/>
<path d="M68.7665 80.5282V75.0673C68.7665 69.0544 62.7272 64.1582 55.2835 64.1582C47.8398 64.1582 41.8137 69.0544 41.8137 75.0673V80.5282H68.7665Z" fill="#FEFEFE"/>
<path d="M68.7664 81.1698H41.8136C41.6388 81.1698 41.4711 81.1022 41.3474 80.9818C41.2238 80.8615 41.1543 80.6983 41.1543 80.5281V75.0671C41.1543 68.7078 47.5035 63.5164 55.2966 63.5164C63.0897 63.5164 69.4389 68.6885 69.4389 75.0671V80.5281C69.4389 80.6134 69.4214 80.698 69.3875 80.7767C69.3535 80.8554 69.3038 80.9267 69.2411 80.9864C69.1785 81.0462 69.1043 81.0932 69.0227 81.1247C68.9412 81.1562 68.8541 81.1715 68.7664 81.1698ZM42.4597 79.8864H68.1071V75.0671C68.1071 69.4137 62.3512 64.7998 55.2834 64.7998C48.2155 64.7998 42.4597 69.3944 42.4597 75.0671V79.8864Z" fill="#1F1D1D"/>
<path d="M53.9583 25.418H57.3735C61.5265 25.418 65.5093 27.0237 68.4459 29.8818C71.3825 32.74 73.0322 36.6165 73.0322 40.6586V52.0168H38.3062V40.6586C38.3062 36.6176 39.955 32.7421 42.8902 29.8841C45.8253 27.0261 49.8065 25.4197 53.9583 25.418Z" fill="#FEFEFE"/>
<path d="M73.0321 52.6651H38.306C38.1312 52.6651 37.9635 52.5975 37.8398 52.4771C37.7162 52.3568 37.6467 52.1935 37.6467 52.0234V40.6715C37.6467 36.4592 39.3646 32.4191 42.423 29.4387C45.4815 26.4584 49.6303 24.7815 53.9582 24.7764H57.3734C61.7002 24.7798 65.8487 26.4542 68.9081 29.4319C71.9676 32.4097 73.688 36.4475 73.6914 40.6587V52.0105C73.6932 52.0959 73.6774 52.1807 73.6451 52.26C73.6127 52.3394 73.5645 52.4116 73.5031 52.4726C73.4417 52.5335 73.3684 52.582 73.2875 52.615C73.2067 52.6481 73.1198 52.6651 73.0321 52.6651ZM38.9654 51.3816H72.3728V40.6715C72.3728 36.7985 70.7929 33.0839 67.9804 30.344C65.1678 27.6041 61.3527 26.0632 57.3734 26.0598H53.9582C49.9823 26.0649 46.1709 27.6048 43.3601 30.3417C40.5494 33.0786 38.9688 36.789 38.9654 40.6587V51.3816Z" fill="#1F1D1D"/>
<path d="M52.9365 63.1826H57.8946V65.9612C57.8946 66.5041 57.673 67.0248 57.2786 67.4087C56.8841 67.7926 56.3492 68.0083 55.7914 68.0083H55.0463C54.4885 68.0083 53.9536 67.7926 53.5591 67.4087C53.1647 67.0248 52.9431 66.5041 52.9431 65.9612V63.1826H52.9365Z" fill="#FEFEFE"/>
<path d="M55.7847 68.6501H55.0396C54.3075 68.6484 53.6059 68.3646 53.0882 67.8607C52.5705 67.3568 52.2788 66.6739 52.2771 65.9613V63.1827C52.2771 63.0125 52.3466 62.8493 52.4702 62.729C52.5939 62.6086 52.7616 62.541 52.9364 62.541H57.8879C58.0627 62.541 58.2304 62.6086 58.3541 62.729C58.4777 62.8493 58.5472 63.0125 58.5472 63.1827V65.9613C58.5454 66.6739 58.2538 67.3568 57.7361 67.8607C57.2184 68.3646 56.5168 68.6484 55.7847 68.6501ZM53.5957 63.8244V65.9613C53.5975 66.3335 53.7501 66.69 54.0206 66.9532C54.291 67.2164 54.6572 67.365 55.0396 67.3667H55.7847C56.1671 67.365 56.5333 67.2164 56.8037 66.9532C57.0741 66.69 57.2268 66.3335 57.2286 65.9613V63.8244H53.5957Z" fill="#1F1D1D"/>
<path d="M41.2468 54.6928C43.905 54.6928 46.0598 52.8857 46.0598 50.6565C46.0598 48.4273 43.905 46.6201 41.2468 46.6201C38.5887 46.6201 36.4338 48.4273 36.4338 50.6565C36.4338 52.8857 38.5887 54.6928 41.2468 54.6928Z" fill="#FEFEFE"/>
<path d="M41.2467 55.3347C38.2337 55.3347 35.7744 53.2363 35.7744 50.6566C35.7744 48.077 38.2337 45.9722 41.2467 45.9722C44.2598 45.9722 46.7256 48.077 46.7256 50.6566C46.7256 53.2363 44.2664 55.3347 41.2467 55.3347ZM41.2467 47.2556C38.9589 47.2556 37.093 48.7829 37.093 50.6566C37.093 52.5304 38.9589 54.0513 41.2467 54.0513C43.5345 54.0513 45.407 52.5304 45.407 50.6566C45.407 48.7829 43.5411 47.2363 41.2467 47.2363V47.2556Z" fill="#1F1D1D"/>
<path d="M69.3203 54.6928C71.9785 54.6928 74.1333 52.8857 74.1333 50.6565C74.1333 48.4273 71.9785 46.6201 69.3203 46.6201C66.6622 46.6201 64.5073 48.4273 64.5073 50.6565C64.5073 52.8857 66.6622 54.6928 69.3203 54.6928Z" fill="#FEFEFE"/>
<path d="M69.3202 55.3347C66.3005 55.3347 63.8413 53.2363 63.8413 50.6566C63.8413 48.077 66.3005 45.9722 69.3202 45.9722C72.3399 45.9722 74.7925 48.077 74.7925 50.6566C74.7925 53.2363 72.3333 55.3347 69.3202 55.3347ZM69.3202 47.2556C67.0258 47.2556 65.1599 48.7829 65.1599 50.6566C65.1599 52.5304 67.0258 54.0513 69.3202 54.0513C71.6146 54.0513 73.4739 52.5304 73.4739 50.6566C73.4739 48.7829 71.608 47.2363 69.3202 47.2363V47.2556Z" fill="#1F1D1D"/>
<path d="M55.4087 63.8182C51.5618 63.8182 47.8724 62.3308 45.1522 59.6833C42.432 57.0357 40.9038 53.4448 40.9038 49.7006V41.7627C40.9038 41.0858 41.0413 40.4156 41.3084 39.7907C41.5756 39.1657 41.967 38.5984 42.4603 38.1212C42.9536 37.6441 43.539 37.2666 44.1827 37.0105C44.8264 36.7544 45.5159 36.6248 46.2113 36.629H64.6259C65.3214 36.6248 66.0108 36.7544 66.6545 37.0105C67.2983 37.2666 67.8836 37.6441 68.3769 38.1212C68.8702 38.5984 69.2617 39.1657 69.5288 39.7907C69.7959 40.4156 69.9334 41.0858 69.9334 41.7627V49.6814C69.936 51.5386 69.5621 53.378 68.8331 55.0943C68.1041 56.8106 67.0343 58.3701 65.685 59.6833C64.3358 60.9965 62.7336 62.0378 60.9702 62.7473C59.2068 63.4568 57.3169 63.8208 55.4087 63.8182Z" fill="#FEFEFE"/>
<path d="M55.4089 64.4597C51.3897 64.4512 47.5377 62.8935 44.6958 60.1274C41.8538 57.3614 40.2533 53.6122 40.2446 49.7004V41.7624C40.2551 40.2283 40.8881 38.7604 42.0058 37.6785C43.1235 36.5967 44.6352 35.9887 46.2114 35.9871H64.6261C66.2023 35.9887 67.714 36.5967 68.8317 37.6785C69.9494 38.7604 70.5824 40.2283 70.5929 41.7624V49.6811C70.5894 53.5996 68.9885 57.3566 66.1417 60.1274C63.2949 62.8982 59.4348 64.4563 55.4089 64.4597ZM46.1785 37.2384C44.9514 37.2384 43.7741 37.7106 42.9033 38.5521C42.0326 39.3936 41.539 40.5361 41.5303 41.7304V49.6491C41.5303 53.2273 42.9908 56.6591 45.5904 59.1893C48.19 61.7195 51.7159 63.141 55.3924 63.141C59.0688 63.141 62.5947 61.7195 65.1943 59.1893C67.794 56.6591 69.2545 53.2273 69.2545 49.6491V41.7624C69.2458 40.5682 68.7522 39.4257 67.8814 38.5842C67.0107 37.7427 65.8334 37.2704 64.6063 37.2705L46.1785 37.2384Z" fill="#1F1D1D"/>
<path d="M47.3717 80.8167C47.1969 80.8167 47.0292 80.7491 46.9055 80.6288C46.7819 80.5084 46.7124 80.3452 46.7124 80.175V73.6232C46.7124 73.453 46.7819 73.2897 46.9055 73.1694C47.0292 73.0491 47.1969 72.9814 47.3717 72.9814C47.5466 72.9814 47.7143 73.0491 47.8379 73.1694C47.9616 73.2897 48.031 73.453 48.031 73.6232V80.175C48.031 80.3452 47.9616 80.5084 47.8379 80.6288C47.7143 80.7491 47.5466 80.8167 47.3717 80.8167Z" fill="#1F1D1D"/>
<path d="M63.1952 80.8167C63.0203 80.8167 62.8527 80.7491 62.729 80.6288C62.6054 80.5084 62.5359 80.3452 62.5359 80.175V73.6232C62.5359 73.453 62.6054 73.2897 62.729 73.1694C62.8527 73.0491 63.0203 72.9814 63.1952 72.9814C63.3701 72.9814 63.5378 73.0491 63.6614 73.1694C63.7851 73.2897 63.8545 73.453 63.8545 73.6232V80.175C63.8545 80.3452 63.7851 80.5084 63.6614 80.6288C63.5378 80.7491 63.3701 80.8167 63.1952 80.8167Z" fill="#1F1D1D"/>
<path d="M6.59984 34.8835H28.2649L31.4164 40.2289V34.8835H33.0317C34.6055 34.8835 36.1148 34.275 37.2276 33.1919C38.3404 32.1088 38.9656 30.6398 38.9656 29.1081V25.0525C38.9656 23.5208 38.3404 22.0518 37.2276 20.9687C36.1148 19.8856 34.6055 19.2771 33.0317 19.2771H6.59984C5.02609 19.2771 3.5168 19.8856 2.40399 20.9687C1.29119 22.0518 0.666016 23.5208 0.666016 25.0525V29.1209C0.669508 30.6504 1.29622 32.1161 2.40865 33.1964C3.52108 34.2768 5.02838 34.8835 6.59984 34.8835Z" fill="#2A2A2A"/>
<path d="M31.4163 40.8705C31.3001 40.8709 31.1859 40.8415 31.0852 40.7852C30.9845 40.7288 30.9008 40.6476 30.8427 40.5496L27.8824 35.525H6.59314C4.84453 35.525 3.16754 34.849 1.93109 33.6455C0.694633 32.4421 0 30.8099 0 29.108V25.0523C0 23.3504 0.694633 21.7182 1.93109 20.5148C3.16754 19.3113 4.84453 18.6353 6.59314 18.6353H33.0316C34.7802 18.6353 36.4572 19.3113 37.6937 20.5148C38.9301 21.7182 39.6248 23.3504 39.6248 25.0523V29.1208C39.6248 30.8227 38.9301 32.4549 37.6937 33.6584C36.4572 34.8618 34.7802 35.5379 33.0316 35.5379H32.0756V40.2416C32.0807 40.3865 32.0353 40.5288 31.9467 40.6453C31.8581 40.7618 31.7316 40.8457 31.5877 40.8833C31.5303 40.8854 31.4728 40.8811 31.4163 40.8705ZM6.59314 19.9379C5.19425 19.9379 3.85266 20.4788 2.8635 21.4415C1.87434 22.4043 1.31863 23.7101 1.31863 25.0716V29.14C1.31863 30.5016 1.87434 31.8073 2.8635 32.7701C3.85266 33.7328 5.19425 34.2737 6.59314 34.2737H28.2648C28.381 34.2733 28.4952 34.3027 28.5959 34.359C28.6967 34.4154 28.7803 34.4966 28.8384 34.5946L30.757 37.8545V34.9154C30.757 34.7452 30.8265 34.582 30.9501 34.4617C31.0738 34.3413 31.2415 34.2737 31.4163 34.2737H33.0316C34.4305 34.2737 35.7721 33.7328 36.7613 32.7701C37.7504 31.8073 38.3061 30.5016 38.3061 29.14V25.0523C38.3061 23.6908 37.7504 22.385 36.7613 21.4223C35.7721 20.4595 34.4305 19.9187 33.0316 19.9187L6.59314 19.9379Z" fill="#1F1D1D"/>
<path d="M12.7445 25.4567L14.8939 24.7765L15.3884 26.2974L13.239 26.9391L14.6038 28.7615L13.239 29.737L11.8545 27.8952L10.5358 29.6599L9.21721 28.6781L10.6018 26.9391L8.41284 26.2011L8.9403 24.6803L11.0897 25.4311V23.2493H12.7709L12.7445 25.4567Z" fill="#FEFEFE"/>
<path d="M20.6696 25.4567L22.8255 24.7765L23.3134 26.2974L21.1641 26.9391L22.5289 28.7615L21.1641 29.737L19.7795 27.8952L18.4609 29.6599L17.1423 28.6781L18.5268 26.9391L16.3379 26.2011L16.8653 24.6803L19.0213 25.4311V23.2493H20.696L20.6696 25.4567Z" fill="#FEFEFE"/>
<path d="M28.6276 25.4567L30.7506 24.7765L31.2451 26.2974L29.0891 26.9391L30.4539 28.7615L29.0891 29.737L27.7046 27.8952L26.3859 29.6599L25.0673 28.6781L26.4519 26.9391L24.2629 26.2011L24.7904 24.6803L26.9463 25.4311V23.2493H28.6276V25.4567Z" fill="#FEFEFE"/>
<path d="M94.836 92.374C102.836 92.374 109.321 86.0619 109.321 78.2756C109.321 70.4893 102.836 64.1772 94.836 64.1772C86.8361 64.1772 80.3508 70.4893 80.3508 78.2756C80.3508 86.0619 86.8361 92.374 94.836 92.374Z" fill="#012356"/>
<path d="M94.8359 93.016C91.8367 93.016 88.9048 92.1503 86.4111 90.5286C83.9173 88.9068 81.9737 86.6017 80.8259 83.9048C79.6782 81.2079 79.3779 78.2403 79.963 75.3772C80.5481 72.5142 81.9924 69.8843 84.1131 67.8202C86.2339 65.7561 88.9359 64.3504 91.8775 63.7809C94.819 63.2114 97.8681 63.5037 100.639 64.6208C103.41 65.7379 105.778 67.6296 107.444 70.0568C109.111 72.484 110 75.3375 110 78.2566C110 82.1711 108.402 85.9251 105.559 88.6931C102.715 91.461 98.8577 93.016 94.8359 93.016ZM94.8359 64.8192C92.0975 64.8192 89.4206 65.6096 87.1437 67.0903C84.8668 68.5711 83.0921 70.6757 82.0442 73.1381C80.9963 75.6005 80.7221 78.3101 81.2563 80.9242C81.7905 83.5382 83.1092 85.9394 85.0455 87.824C86.9819 89.7087 89.4489 90.9921 92.1347 91.5121C94.8205 92.0321 97.6044 91.7652 100.134 90.7452C102.664 89.7253 104.827 87.998 106.348 85.7819C107.869 83.5658 108.681 80.9604 108.681 78.2951C108.681 74.7211 107.223 71.2935 104.626 68.7662C102.03 66.239 98.508 64.8192 94.8359 64.8192Z" fill="#1F1D1D"/>
<path d="M91.2096 84.9624L86.1724 80.0597C86.0194 79.9095 85.9336 79.7066 85.9336 79.4951C85.9336 79.2835 86.0194 79.0806 86.1724 78.9303L87.7614 77.3967C87.9146 77.2481 88.122 77.1648 88.3383 77.1648C88.5545 77.1648 88.762 77.2481 88.9152 77.3967L91.4469 79.8672C91.5458 79.9633 91.6798 80.0172 91.8195 80.0172C91.9591 80.0172 92.0931 79.9633 92.192 79.8672L100.493 71.8202C100.603 71.7125 100.734 71.6271 100.878 71.5688C101.022 71.5105 101.177 71.4805 101.333 71.4805C101.49 71.4805 101.644 71.5105 101.788 71.5688C101.933 71.6271 102.064 71.7125 102.174 71.8202L103.229 72.8469C103.34 72.9538 103.429 73.0812 103.489 73.2216C103.55 73.3621 103.581 73.5129 103.581 73.6651C103.581 73.8174 103.55 73.9681 103.489 74.1086C103.429 74.2491 103.34 74.3764 103.229 74.4833L92.4491 84.9624C92.2847 85.1223 92.0618 85.2121 91.8293 85.2121C91.5969 85.2121 91.374 85.1223 91.2096 84.9624Z" fill="#FEFEFE"/>
<path d="M71.5949 86.5793H37.7589C35.4139 86.5793 33.5129 88.4296 33.5129 90.712C33.5129 92.9943 35.4139 94.8446 37.7589 94.8446H71.5949C73.9399 94.8446 75.8409 92.9943 75.8409 90.712C75.8409 88.4296 73.9399 86.5793 71.5949 86.5793Z" fill="#012356"/>
<path d="M71.5948 95.4864H37.7588C36.4578 95.4864 35.2102 94.9834 34.2902 94.088C33.3703 93.1927 32.8535 91.9783 32.8535 90.7121C32.8535 89.4458 33.3703 88.2315 34.2902 87.3361C35.2102 86.4407 36.4578 85.9377 37.7588 85.9377H71.5948C72.8958 85.9377 74.1435 86.4407 75.0634 87.3361C75.9833 88.2315 76.5001 89.4458 76.5001 90.7121C76.5001 91.9783 75.9833 93.1927 75.0634 94.088C74.1435 94.9834 72.8958 95.4864 71.5948 95.4864ZM37.7588 87.2212C36.8076 87.2212 35.8953 87.589 35.2227 88.2436C34.55 88.8983 34.1721 89.7862 34.1721 90.7121C34.1721 91.6379 34.55 92.5258 35.2227 93.1805C35.8953 93.8352 36.8076 94.203 37.7588 94.203H71.5948C72.5461 94.203 73.4583 93.8352 74.131 93.1805C74.8036 92.5258 75.1815 91.6379 75.1815 90.7121C75.1815 89.7862 74.8036 88.8983 74.131 88.2436C73.4583 87.589 72.5461 87.2212 71.5948 87.2212H37.7588Z" fill="#1F1D1D"/>
</svg>
