<svg width="46" height="46" viewBox="0 0 46 46" fill="none" xmlns="http://www.w3.org/2000/svg">
<g filter="url(#filter0_d_1_615)">
<rect x="2" y="2" width="42" height="42" rx="21" fill="white" shape-rendering="crispEdges"/>
<path d="M32.0015 23.1999C32.0015 22.4599 31.9402 21.9199 31.8076 21.3599H23.1851V24.6999H28.2463C28.1443 25.5299 27.5932 26.7799 26.3687 27.6199L26.3515 27.7317L29.0779 29.8015L29.2667 29.8199C31.0014 28.2499 32.0015 25.9399 32.0015 23.1999Z" fill="#4285F4"/>
<path d="M23.1844 31.9999C25.6639 31.9999 27.7455 31.1999 29.266 29.8198L26.368 27.6198C25.5925 28.1498 24.5517 28.5198 23.1844 28.5198C20.7558 28.5198 18.6946 26.9498 17.9598 24.7798L17.8521 24.7887L15.0173 26.9388L14.9802 27.0398C16.4904 29.9798 19.5925 31.9999 23.1844 31.9999Z" fill="#34A853"/>
<path d="M17.9601 24.7801C17.7663 24.2202 17.6541 23.6201 17.6541 23.0001C17.6541 22.3801 17.7663 21.7801 17.9499 21.2201L17.9448 21.1008L15.0745 18.9163L14.9806 18.96C14.3581 20.1801 14.001 21.5501 14.001 23.0001C14.001 24.4501 14.3581 25.8201 14.9806 27.0401L17.9601 24.7801Z" fill="#FBBC05"/>
<path d="M23.1844 17.48C24.9089 17.48 26.0722 18.21 26.7355 18.82L29.3273 16.34C27.7355 14.89 25.664 14 23.1844 14C19.5925 14 16.4904 16.02 14.9802 18.96L17.9496 21.22C18.6946 19.05 20.7558 17.48 23.1844 17.48Z" fill="#EB4335"/>
</g>
<defs>
<filter id="filter0_d_1_615" x="0" y="0" width="46" height="46" filterUnits="userSpaceOnUse" color-interpolation-filters="sRGB">
<feFlood flood-opacity="0" result="BackgroundImageFix"/>
<feColorMatrix in="SourceAlpha" type="matrix" values="0 0 0 0 0 0 0 0 0 0 0 0 0 0 0 0 0 0 127 0" result="hardAlpha"/>
<feOffset/>
<feGaussianBlur stdDeviation="1"/>
<feComposite in2="hardAlpha" operator="out"/>
<feColorMatrix type="matrix" values="0 0 0 0 0.0450721 0 0 0 0 0.0567909 0 0 0 0 0.0721154 0 0 0 0.2 0"/>
<feBlend mode="normal" in2="BackgroundImageFix" result="effect1_dropShadow_1_615"/>
<feBlend mode="normal" in="SourceGraphic" in2="effect1_dropShadow_1_615" result="shape"/>
</filter>
</defs>
</svg>
