<svg width="24" height="24" viewBox="0 0 24 24" fill="none" xmlns="http://www.w3.org/2000/svg">
<path d="M18.9258 1.50342H21.9375V7.46572H18.9258V1.50342Z" fill="#D46B5C"/>
<path d="M22.022 10.9976C21.7076 10.9976 21.3904 10.8995 21.1195 10.6963L12.0001 3.85682L2.8807 10.6964C2.21535 11.1954 1.27133 11.0606 0.772232 10.3952C0.273185 9.72976 0.408052 8.78578 1.07345 8.28669L11.0965 0.769455C11.6319 0.367864 12.3682 0.367864 12.9037 0.769455L22.9267 8.28669C23.5921 8.78574 23.727 9.72972 23.2279 10.3952C22.9321 10.7896 22.4798 10.9976 22.022 10.9976Z" fill="#FD7DA0"/>
<path d="M22.022 10.9976C21.7076 10.9976 21.3904 10.8995 21.1195 10.6963L12.0001 3.85682L2.8807 10.6964C2.21535 11.1954 1.27133 11.0606 0.772232 10.3952C0.273185 9.72976 0.408052 8.78578 1.07345 8.28669L11.0965 0.769455C11.6319 0.367864 12.3682 0.367864 12.9037 0.769455L22.9267 8.28669C23.5921 8.78574 23.727 9.72972 23.2279 10.3952C22.9321 10.7896 22.4798 10.9976 22.022 10.9976Z" fill="#FD7DA0"/>
<path d="M14.7739 23.5262V21.734C14.7739 19.6046 16.5232 17.8784 18.6809 17.8784C20.8386 17.8784 22.5879 19.6046 22.5879 21.734V23.5262H14.7739Z" fill="#B1D952"/>
<path d="M18.7122 20.1507C18.7122 19.337 18.9455 18.5779 19.3484 17.9361C19.1314 17.8992 18.9086 17.8789 18.6809 17.8789C16.5232 17.8789 14.7739 19.6051 14.7739 21.7344V23.5267H20.4337C19.3905 22.7685 18.7122 21.5389 18.7122 20.1507Z" fill="#91B706"/>
<path d="M18.681 17.8786C19.8982 17.8786 20.8849 16.9049 20.8849 15.7037C20.8849 14.5026 19.8982 13.5288 18.681 13.5288C17.4638 13.5288 16.4771 14.5026 16.4771 15.7037C16.4771 16.9049 17.4638 17.8786 18.681 17.8786Z" fill="#D46B5C"/>
<path d="M9.22604 23.5262V21.734C9.22604 19.6046 7.47681 17.8784 5.31908 17.8784C3.16134 17.8784 1.41211 19.6046 1.41211 21.734V23.5262H9.22604Z" fill="#FDCB50"/>
<path d="M5.35037 20.1507C5.35037 19.337 5.58364 18.5779 5.98659 17.9361C5.76956 17.8992 5.54679 17.8789 5.31908 17.8789C3.16134 17.8789 1.41211 19.6051 1.41211 21.7344V23.5267H7.07184C6.02871 22.7685 5.35037 21.5389 5.35037 20.1507Z" fill="#FD8F01"/>
<path d="M5.31918 17.8786C6.53639 17.8786 7.52313 16.9049 7.52313 15.7037C7.52313 14.5026 6.53639 13.5288 5.31918 13.5288C4.10198 13.5288 3.11523 14.5026 3.11523 15.7037C3.11523 16.9049 4.10198 17.8786 5.31918 17.8786Z" fill="#FDE0BE"/>
<path d="M15.1015 23.5261V22.6317C15.1015 20.9415 13.713 19.5713 12.0002 19.5713C10.2874 19.5713 8.89893 20.9415 8.89893 22.6317V23.5261H15.1015Z" fill="#FD7DA0"/>
<path d="M12.0002 19.5715C13.0826 19.5715 13.96 18.7056 13.96 17.6375C13.96 16.5695 13.0826 15.7036 12.0002 15.7036C10.9179 15.7036 10.0405 16.5695 10.0405 17.6375C10.0405 18.7056 10.9179 19.5715 12.0002 19.5715Z" fill="#FDBEB9"/>
<path d="M23.9798 9.21177C23.9051 8.68915 23.6314 8.22681 23.209 7.91006L22.408 7.30928V1.97387H22.6433C22.9032 1.97387 23.1139 1.76315 23.1139 1.50329C23.1139 1.24344 22.9032 1.03272 22.6433 1.03272H18.2199C17.96 1.03272 17.7493 1.24344 17.7493 1.50329C17.7493 1.76315 17.96 1.97387 18.2199 1.97387H18.4552V4.34459L13.186 0.392779C12.4877 -0.130926 11.5124 -0.130926 10.8141 0.392779L0.791009 7.91006C0.368619 8.22681 0.0949312 8.68915 0.0202506 9.21177C-0.05443 9.73444 0.0789316 10.2549 0.395724 10.6773C0.712517 11.0997 1.17486 11.3734 1.69748 11.4481C1.79235 11.4616 1.88703 11.4684 1.98119 11.4684C2.40575 11.4684 2.81727 11.332 3.163 11.0727L12 4.44482L20.837 11.0726C21.1819 11.3313 21.5916 11.468 22.0218 11.468C22.6414 11.468 23.2329 11.1724 23.6043 10.6773C23.9211 10.2549 24.0545 9.73444 23.9798 9.21177ZM19.3963 1.97387H21.4668V6.60341L19.3963 5.0505V1.97387ZM22.8514 10.1126C22.6539 10.3758 22.3516 10.5268 22.0219 10.5268C21.7969 10.5268 21.5825 10.4552 21.4018 10.3197L12.2824 3.48014C12.1987 3.41741 12.0994 3.38603 12 3.38603C11.9007 3.38603 11.8013 3.41741 11.7177 3.48014L2.59831 10.3197C2.14152 10.6622 1.49123 10.5693 1.14865 10.1126C0.982722 9.89138 0.912841 9.61873 0.951946 9.34495C0.991051 9.07116 1.13444 8.82896 1.3557 8.66303L11.3787 1.1457C11.7445 0.871403 12.2555 0.871309 12.6213 1.1457L22.6443 8.66299C22.8655 8.82891 23.0089 9.07112 23.048 9.3449C23.0871 9.61868 23.0174 9.89133 22.8514 10.1126Z" fill="#052A75"/>
<path d="M20.3783 17.7465C20.9745 17.2609 21.3554 16.5255 21.3554 15.7036C21.3554 14.2449 20.1556 13.0581 18.6809 13.0581C17.2062 13.0581 16.0064 14.2449 16.0064 15.7036C16.0064 16.5254 16.3873 17.2609 16.9835 17.7465C15.8843 18.2052 15.013 19.0954 14.5876 20.2011C14.2958 19.8992 13.9523 19.6504 13.5752 19.4663C14.0979 19.025 14.4302 18.3691 14.4302 17.6376C14.4302 16.3117 13.34 15.233 11.9999 15.233C10.6599 15.233 9.56958 16.3117 9.56958 17.6376C9.56958 18.3691 9.9019 19.025 10.4246 19.4663C10.0475 19.6504 9.70402 19.8992 9.41222 20.2011C8.98682 19.0954 8.1155 18.2052 7.01627 17.7465C7.6125 17.2609 7.99338 16.5255 7.99338 15.7036C7.99338 14.2449 6.7936 13.0581 5.3189 13.0581C3.84421 13.0581 2.64443 14.2449 2.64443 15.7036C2.64443 16.5254 3.02526 17.2609 3.62153 17.7465C2.04834 18.403 0.941406 19.9431 0.941406 21.734V23.5263C0.941406 23.7862 1.15208 23.9969 1.41198 23.9969H22.588C22.8479 23.9969 23.0585 23.7862 23.0585 23.5263V21.734C23.0584 19.9431 21.9515 18.403 20.3783 17.7465ZM3.58544 15.7036C3.58544 14.7639 4.36302 13.9993 5.31876 13.9993C6.2745 13.9993 7.05209 14.7639 7.05209 15.7036C7.05209 16.6434 6.2745 17.408 5.31876 17.408C4.36302 17.408 3.58544 16.6434 3.58544 15.7036ZM8.7552 23.0558H1.88242V21.734C1.88242 19.8676 3.42398 18.3491 5.31881 18.3491C7.21363 18.3491 8.7552 19.8676 8.7552 21.734V23.0558ZM11.9998 16.1742C12.8209 16.1742 13.489 16.8307 13.489 17.6376C13.489 18.4445 12.8209 19.101 11.9998 19.101C11.1787 19.101 10.5106 18.4445 10.5106 17.6376C10.5107 16.8307 11.1787 16.1742 11.9998 16.1742ZM14.3033 21.734V23.0558H9.69635V21.734C9.69635 21.6229 9.69207 21.5128 9.68369 21.4038C10.14 20.5727 11.0352 20.0421 11.9998 20.0421C12.9644 20.0421 13.8596 20.5727 14.316 21.4038C14.3076 21.5128 14.3033 21.6229 14.3033 21.734ZM16.9475 15.7036C16.9475 14.7639 17.7251 13.9993 18.6808 13.9993C19.6366 13.9993 20.4142 14.7639 20.4142 15.7036C20.4142 16.6434 19.6366 17.408 18.6808 17.408C17.7251 17.408 16.9475 16.6434 16.9475 15.7036ZM22.1172 23.0558H15.2445V21.734C15.2445 19.8676 16.786 18.3491 18.6808 18.3491C20.5757 18.3491 22.1172 19.8676 22.1172 21.734V23.0558Z" fill="#052A75"/>
</svg>
