<svg width="24" height="24" viewBox="0 0 24 24" fill="none" xmlns="http://www.w3.org/2000/svg">
<g clip-path="url(#clip0_1_3699)">
<path d="M19.7656 8.08317V5.81873C19.7656 4.96097 19.0702 4.26562 18.2125 4.26562H13.5531C12.6953 4.26562 12 4.96097 12 5.81873V8.08317H19.7656Z" fill="#D8ECFE"/>
<path d="M18.2812 4.26709V6.53612C18.2812 6.79501 18.0714 7.00487 17.8125 7.00487H12V8.0829H19.7656V5.81846C19.7656 4.98376 19.1071 4.30309 18.2812 4.26709Z" fill="#C4E2FF"/>
<path d="M14.8447 4.26562L15.498 5.98495L15.5363 6.03183H16.2261L16.2653 5.98495L16.9059 4.26562H14.8447Z" fill="#685E68"/>
<path d="M1.68018 15.7249C1.3183 15.7249 1.02393 15.4306 1.02393 15.0687V8.73926C1.02393 8.37738 1.3183 8.08301 1.68018 8.08301H22.3195C22.6814 8.08301 22.9758 8.37738 22.9758 8.73926V15.0687C22.9758 15.4306 22.6814 15.7249 22.3195 15.7249H1.68018Z" fill="#05E39C"/>
<path d="M22.3195 8.08301H21.4686V13.5949C21.4686 13.9568 21.1742 14.2512 20.8123 14.2512H1.02393V15.0686C1.02393 15.4305 1.3183 15.7249 1.68018 15.7249H22.3195C22.6814 15.7249 22.9758 15.4305 22.9758 15.0686V8.73926C22.9758 8.37743 22.6814 8.08301 22.3195 8.08301Z" fill="#0ED290"/>
<path d="M16.6799 8.08308L16.2648 5.98486H15.4976L15.0723 8.08308H16.6799Z" fill="#554E56"/>
<path d="M15.2908 7.00488L15.0723 8.08291H16.6799L16.4666 7.00488H15.2908Z" fill="#433F43"/>
<path d="M15.8826 4.56206C17.0453 4.56206 17.9878 3.61951 17.9878 2.45681C17.9878 1.29411 17.0453 0.351562 15.8826 0.351562C14.7199 0.351562 13.7773 1.29411 13.7773 2.45681C13.7773 3.61951 14.7199 4.56206 15.8826 4.56206Z" fill="#C96E59"/>
<path d="M12 8.08317V5.81873C12 4.96097 11.3046 4.26562 10.4469 4.26562H5.78748C4.92972 4.26562 4.23438 4.96097 4.23438 5.81873V8.08317H12Z" fill="#E2DEE2"/>
<path d="M10.5156 4.26709V6.53612C10.5156 6.79501 10.3058 7.00487 10.0469 7.00487H4.23438V8.0829H12V5.81846C12 4.98376 11.3415 4.30309 10.5156 4.26709Z" fill="#CBC4CC"/>
<path d="M7.0791 4.26562L7.7324 5.98495L7.77074 6.03183H8.46046L8.49965 5.98495L9.14034 4.26562H7.0791Z" fill="#26A6FE"/>
<path d="M8.91475 8.08308L8.49968 5.98486H7.73243L7.30713 8.08308H8.91475Z" fill="#0593FC"/>
<path d="M7.52566 7.00488L7.30713 8.08291H8.91475L8.70152 7.00488H7.52566Z" fill="#0182FC"/>
<path d="M8.11746 4.56206C9.28015 4.56206 10.2227 3.61951 10.2227 2.45681C10.2227 1.29411 9.28015 0.351562 8.11746 0.351562C6.95476 0.351562 6.01221 1.29411 6.01221 2.45681C6.01221 3.61951 6.95476 4.56206 8.11746 4.56206Z" fill="#FFCEBF"/>
<path d="M6.56405 18.5703H1.90467C1.04691 18.5703 0.351562 19.2657 0.351562 20.1234V23.1797C0.351562 23.4386 0.561422 23.6485 0.820312 23.6485H8.1172V20.1234C8.1172 19.2657 7.42181 18.5703 6.56405 18.5703Z" fill="#D8ECFE"/>
<path d="M6.65625 18.5732V21.7188C6.65625 21.9777 6.44639 22.1875 6.1875 22.1875H0.351562V23.1797C0.351562 23.4386 0.561422 23.6484 0.820312 23.6484H8.1172V20.1234C8.1172 19.2966 7.47108 18.621 6.65625 18.5732Z" fill="#C4E2FF"/>
<path d="M4.23416 18.8668C5.39685 18.8668 6.33941 17.9242 6.33941 16.7615C6.33941 15.5988 5.39685 14.6562 4.23416 14.6562C3.07146 14.6562 2.12891 15.5988 2.12891 16.7615C2.12891 17.9242 3.07146 18.8668 4.23416 18.8668Z" fill="#FFCEBF"/>
<path d="M3.19629 18.5703L3.84959 20.2896L3.88788 20.3365H4.57765L4.61684 20.2896L5.25748 18.5703H3.19629Z" fill="#685E68"/>
<path d="M5.28141 23.6484L4.61696 20.2896H3.84971L3.16895 23.6484H5.28141Z" fill="#554E56"/>
<path d="M3.46501 22.1875L3.16895 23.6484H5.28141L4.99243 22.1875H3.46501Z" fill="#433F43"/>
<path d="M14.3297 18.5703H9.6703C8.81253 18.5703 8.11719 19.2657 8.11719 20.1234V23.6485H15.8828V20.1234C15.8828 19.2657 15.1874 18.5703 14.3297 18.5703Z" fill="#FFE177"/>
<path d="M14.4219 18.5732V21.7188C14.4219 21.9777 14.212 22.1875 13.9531 22.1875H8.11719V23.6484H15.8828V20.1234C15.8828 19.2966 15.2367 18.621 14.4219 18.5732Z" fill="#FFD15B"/>
<path d="M11.9998 18.8731L13.6016 20.2283C13.7539 20.3572 13.9873 20.249 13.9873 20.0494V18.5703H10.0122V20.0494C10.0122 20.249 10.2456 20.3572 10.3979 20.2283L11.9998 18.8731Z" fill="#FFD15B"/>
<path d="M11.9998 18.8668C13.1625 18.8668 14.105 17.9242 14.105 16.7615C14.105 15.5988 13.1625 14.6562 11.9998 14.6562C10.8371 14.6562 9.89453 15.5988 9.89453 16.7615C9.89453 17.9242 10.8371 18.8668 11.9998 18.8668Z" fill="#C96E59"/>
<path d="M17.8249 18.5703H17.4359C16.5782 18.5703 15.8828 19.2657 15.8828 20.1234V23.6485H17.8249V18.5703Z" fill="#B5ADB6"/>
<path d="M22.0951 18.5703H21.7061V23.6485H23.1794C23.4383 23.6485 23.6482 23.4386 23.6482 23.1797V20.1234C23.6482 19.2657 22.9528 18.5703 22.0951 18.5703Z" fill="#A79BA7"/>
<path d="M15.8828 22.1875H17.7781V23.6484H15.8828V22.1875Z" fill="#A79BA7"/>
<path d="M17.7783 18.5703H21.7534V23.6485H17.7783V18.5703Z" fill="#D8ECFE"/>
<path d="M17.7783 22.1875H21.7534V23.6484H17.7783V22.1875Z" fill="#C4E2FF"/>
<path d="M19.7659 18.8732L21.7534 20.5547V18.5703H17.7783V20.5547L19.7659 18.8732Z" fill="#C4E2FF"/>
<path d="M19.7659 18.8668C20.9286 18.8668 21.8711 17.9242 21.8711 16.7615C21.8711 15.5988 20.9286 14.6562 19.7659 14.6562C18.6032 14.6562 17.6606 15.5988 17.6606 16.7615C17.6606 17.9242 18.6032 18.8668 19.7659 18.8668Z" fill="#FFCEBF"/>
<path d="M16.217 0.378418C16.4115 0.697355 16.5237 1.07207 16.5237 1.47304C16.5237 2.63573 15.5811 3.57829 14.4184 3.57829C14.3047 3.57829 14.1933 3.56901 14.0845 3.55167C14.4541 4.15767 15.1213 4.56234 15.8831 4.56234C17.0458 4.56234 17.9883 3.61978 17.9883 2.45709C17.9883 1.40803 17.2209 0.538496 16.217 0.378418Z" fill="#BB5D4C"/>
<path d="M8.45133 0.378418C8.64586 0.697355 8.75803 1.07207 8.75803 1.47304C8.75803 2.63573 7.81547 3.57829 6.65278 3.57829C6.53911 3.57829 6.42764 3.56901 6.31885 3.55167C6.68846 4.15767 7.35568 4.56234 8.11744 4.56234C9.28013 4.56234 10.2227 3.61978 10.2227 2.45709C10.2226 1.40803 9.4553 0.538496 8.45133 0.378418Z" fill="#FFB09E"/>
<path d="M20.0998 14.6831C20.2943 15.002 20.4065 15.3768 20.4065 15.7777C20.4065 16.9404 19.4639 17.883 18.3012 17.883C18.1876 17.883 18.0761 17.8737 17.9673 17.8564C18.3369 18.4624 19.0041 18.867 19.7659 18.867C20.9286 18.867 21.8711 17.9245 21.8711 16.7618C21.8711 15.7127 21.1037 14.8432 20.0998 14.6831Z" fill="#FFB09E"/>
<path d="M12.3341 14.6831C12.5287 15.002 12.6408 15.3768 12.6408 15.7777C12.6408 16.9404 11.6983 17.883 10.5356 17.883C10.4219 17.883 10.3105 17.8737 10.2017 17.8564C10.5713 18.4624 11.2385 18.867 12.0003 18.867C13.1629 18.867 14.1055 17.9245 14.1055 16.7618C14.1055 15.7127 13.3381 14.8432 12.3341 14.6831Z" fill="#BB5D4C"/>
<path d="M4.56852 14.6831C4.76305 15.002 4.87522 15.3768 4.87522 15.7777C4.87522 16.9404 3.93266 17.883 2.76997 17.883C2.6563 17.883 2.54483 17.8737 2.43604 17.8564C2.80564 18.4624 3.47286 18.867 4.23463 18.867C5.39732 18.867 6.33988 17.9245 6.33988 16.7618C6.33988 15.7127 5.57249 14.8432 4.56852 14.6831Z" fill="#FFB09E"/>
<path d="M10.5805 13.9851C10.7621 14.0542 10.965 13.9631 11.0342 13.7817L11.2963 13.0935H13.0583L13.3177 13.7807C13.3709 13.9215 13.5046 14.0082 13.6467 14.0082C13.6879 14.0082 13.7299 14.0009 13.7707 13.9855C13.9524 13.917 14.0441 13.7141 13.9755 13.5324L12.5895 9.85983C12.5883 9.85659 12.5871 9.85341 12.5857 9.85022C12.5182 9.68606 12.36 9.58008 12.1825 9.58008H12.1821C12.0045 9.58022 11.8462 9.68658 11.779 9.85097C11.7779 9.85364 11.7768 9.85627 11.7758 9.85894L10.3771 13.5314C10.308 13.7129 10.3991 13.916 10.5805 13.9851ZM12.1814 10.7697L12.793 12.3903H11.5641L12.1814 10.7697Z" fill="black"/>
<path d="M16.3727 10.2969C16.5669 10.2969 16.7243 10.1395 16.7243 9.94531C16.7243 9.75116 16.5669 9.59375 16.3727 9.59375H14.874C14.6799 9.59375 14.5225 9.75116 14.5225 9.94531V13.643C14.5225 13.8372 14.6799 13.9946 14.874 13.9946C15.0682 13.9946 15.2256 13.8372 15.2256 13.643V12.1107H16.2536C16.4478 12.1107 16.6052 11.9533 16.6052 11.7591C16.6052 11.565 16.4478 11.4076 16.2536 11.4076H15.2256V10.2969H16.3727Z" fill="black"/>
<path d="M19.1012 10.2969C19.2954 10.2969 19.4528 10.1395 19.4528 9.94531C19.4528 9.75116 19.2954 9.59375 19.1012 9.59375H17.6025C17.4084 9.59375 17.251 9.75116 17.251 9.94531V13.643C17.251 13.8372 17.4084 13.9946 17.6025 13.9946C17.7967 13.9946 17.9541 13.8372 17.9541 13.643V12.1107H18.9822C19.1763 12.1107 19.3337 11.9533 19.3337 11.7591C19.3337 11.565 19.1763 11.4076 18.9822 11.4076H17.9541V10.2969H19.1012Z" fill="black"/>
<path d="M6.19698 13.3052C5.79507 13.3052 5.40723 13.142 5.15945 12.8686C5.02909 12.7247 4.80676 12.7137 4.66285 12.8442C4.51899 12.9746 4.50802 13.1968 4.63843 13.3407C5.01732 13.7588 5.59993 14.0084 6.19702 14.0084C6.91491 14.0084 7.54051 13.5367 7.65216 12.9113C7.73677 12.4374 7.5159 11.8162 6.64215 11.4939C6.16604 11.3182 5.7242 11.1266 5.60898 11.076C5.49704 10.993 5.4428 10.8611 5.46329 10.7184C5.48945 10.5364 5.63007 10.3901 5.83955 10.327C6.42676 10.1502 6.95879 10.576 6.9699 10.585C7.11849 10.7087 7.33932 10.6892 7.46387 10.541C7.58879 10.3924 7.56957 10.1706 7.42098 10.0457C7.38774 10.0177 6.59612 9.36467 5.63677 9.65375C5.16549 9.79568 4.83235 10.1654 4.76729 10.6185C4.70663 11.041 4.88959 11.4472 5.2448 11.6788C5.26037 11.6889 5.27663 11.6978 5.2936 11.7053C5.31502 11.7149 5.82465 11.9417 6.39882 12.1535C6.80096 12.3019 7.00548 12.533 6.96001 12.7877C6.91454 13.0421 6.61674 13.3052 6.19698 13.3052Z" fill="black"/>
<path d="M10.312 9.58008H8.25488C8.06073 9.58008 7.90332 9.73748 7.90332 9.93164C7.90332 10.1258 8.06073 10.2832 8.25488 10.2832H8.92773V13.6566C8.92773 13.8507 9.08513 14.0081 9.27929 14.0081C9.47345 14.0081 9.63085 13.8507 9.63085 13.6566V10.2832H10.312C10.5061 10.2832 10.6636 10.1258 10.6636 9.93164C10.6636 9.73748 10.5061 9.58008 10.312 9.58008Z" fill="black"/>
<path d="M12 20.2402C11.8058 20.2402 11.6484 20.3976 11.6484 20.5918V20.6486C11.6484 20.8427 11.8058 21.0001 12 21.0001C12.1942 21.0001 12.3516 20.8427 12.3516 20.6486V20.5918C12.3516 20.3976 12.1942 20.2402 12 20.2402Z" fill="black"/>
<path d="M12 21.6934C11.8058 21.6934 11.6484 21.8508 11.6484 22.0449V22.1017C11.6484 22.2958 11.8058 22.4532 12 22.4532C12.1942 22.4532 12.3516 22.2958 12.3516 22.1017V22.0449C12.3516 21.8507 12.1942 21.6934 12 21.6934Z" fill="black"/>
<path d="M23.6484 20.9766C23.8426 20.9766 24 20.8192 24 20.625V20.1234C24 19.0732 23.1456 18.2187 22.0953 18.2187H21.7536C21.7535 18.2187 21.7533 18.2187 21.7531 18.2187C21.753 18.2187 21.7529 18.2187 21.7527 18.2187H21.7421C22.0437 17.8108 22.2224 17.3067 22.2224 16.7616C22.2224 16.5238 22.1878 16.2942 22.1245 16.0766H22.3196C22.8753 16.0766 23.3274 15.6245 23.3274 15.0688V8.73933C23.3274 8.18362 22.8753 7.73152 22.3196 7.73152H20.1172V5.81864C20.1172 4.76841 19.2627 3.91397 18.2125 3.91397H17.8594C18.1609 3.50602 18.3397 3.00192 18.3397 2.45681C18.3397 1.10212 17.2375 0 15.8828 0C14.5282 0 13.426 1.10212 13.426 2.45681C13.426 3.00192 13.6047 3.50597 13.9063 3.91397H13.5532C12.9127 3.91397 12.3455 4.23206 12 4.71816C11.6546 4.23202 11.0874 3.91397 10.4469 3.91397H10.0938C10.3953 3.50602 10.5741 3.00192 10.5741 2.45681C10.5741 1.10212 9.47194 0 8.11725 0C6.76256 0 5.66044 1.10212 5.66044 2.45681C5.66044 3.00192 5.83912 3.50597 6.14072 3.91397H5.78761C4.73738 3.91397 3.88294 4.76841 3.88294 5.81864V7.73152H1.68033C1.12463 7.73152 0.672516 8.18362 0.672516 8.73933V11.0156C0.672516 11.2098 0.829922 11.3672 1.02408 11.3672C1.21823 11.3672 1.37564 11.2098 1.37564 11.0156V8.73933C1.37564 8.57133 1.51233 8.43464 1.68033 8.43464H22.3197C22.4877 8.43464 22.6244 8.57133 22.6244 8.73933V15.0688C22.6244 15.2368 22.4877 15.3735 22.3197 15.3735H21.7913C21.348 14.7286 20.6055 14.3047 19.7656 14.3047C18.9257 14.3047 18.1831 14.7286 17.7399 15.3735H14.0257C13.5824 14.7286 12.8399 14.3047 12 14.3047C11.16 14.3047 10.4175 14.7286 9.97425 15.3735H6.26002C5.81677 14.7286 5.07422 14.3047 4.23431 14.3047C3.39441 14.3047 2.65186 14.7286 2.20861 15.3735H1.68033C1.51233 15.3735 1.37564 15.2368 1.37564 15.0688V12.6562C1.37564 12.4621 1.21823 12.3047 1.02408 12.3047C0.829922 12.3047 0.672516 12.4621 0.672516 12.6562V15.0688C0.672516 15.6245 1.12463 16.0766 1.68033 16.0766H1.87542C1.81214 16.2942 1.77755 16.5238 1.77755 16.7616C1.77755 17.3067 1.95623 17.8107 2.25783 18.2187H1.90467C0.854437 18.2187 0 19.0732 0 20.1234V20.625C0 20.8192 0.157406 20.9766 0.351562 20.9766C0.545719 20.9766 0.703125 20.8192 0.703125 20.625V20.1234C0.703125 19.4609 1.24214 18.9218 1.90467 18.9218H2.95369L3.48473 20.3194L2.88127 23.2969H0.820312C0.755719 23.2969 0.703125 23.2443 0.703125 23.1797V22.2656C0.703125 22.0715 0.545719 21.9141 0.351562 21.9141C0.157406 21.9141 0 22.0715 0 22.2656V23.1797C0 23.632 0.368016 24 0.820312 24H23.1797C23.632 24 24 23.632 24 23.1797V22.2656C24 22.0715 23.8426 21.9141 23.6484 21.9141C23.4543 21.9141 23.2969 22.0715 23.2969 22.2656V23.1797C23.2969 23.2443 23.2443 23.2969 23.1797 23.2969H22.1047V18.9221C22.7629 18.9272 23.2969 19.464 23.2969 20.1234V20.625C23.2969 20.8192 23.4543 20.9766 23.6484 20.9766ZM16.021 5.6333H15.7404L15.4523 4.87509C15.5922 4.89994 15.7359 4.91362 15.8828 4.91362C16.0261 4.91362 16.1663 4.90059 16.3029 4.87697L16.021 5.6333ZM15.8828 0.703125C16.8498 0.703125 17.6365 1.48983 17.6365 2.45681C17.6365 3.4238 16.8498 4.2105 15.8828 4.2105C14.9158 4.2105 14.1291 3.4238 14.1291 2.45681C14.1291 1.48983 14.9159 0.703125 15.8828 0.703125ZM11.6484 5.81864V7.73152H9.20348L8.86378 6.01425L9.38437 4.61709H10.4468C11.1094 4.61709 11.6484 5.15611 11.6484 5.81864ZM7.9748 5.6333L7.6867 4.87509C7.82658 4.89994 7.97025 4.91362 8.11716 4.91362C8.26041 4.91362 8.40061 4.90059 8.5372 4.87697L8.25539 5.6333H7.9748ZM8.1172 0.703125C9.08419 0.703125 9.87089 1.48983 9.87089 2.45681C9.87089 3.4238 9.08419 4.2105 8.1172 4.2105C7.15022 4.2105 6.36352 3.4238 6.36352 2.45681C6.36352 1.48983 7.15022 0.703125 8.1172 0.703125ZM4.58592 5.81864C4.58592 5.15611 5.12494 4.61709 5.78747 4.61709H6.83648L7.36753 6.01467L7.01953 7.73156H4.58592V5.81864ZM7.737 7.73152L8.01975 6.33637H8.21072L8.48672 7.73152H7.737ZM12.3516 5.81864C12.3516 5.15611 12.8906 4.61709 13.5531 4.61709H14.6021L15.1332 6.01467L14.7852 7.73156H12.3516V5.81864ZM15.5026 7.73152L15.7854 6.33637H15.9764L16.2524 7.73152H15.5026ZM16.9691 7.73152L16.6294 6.01425L17.1501 4.61705H18.2125C18.8751 4.61705 19.4141 5.15606 19.4141 5.81859V7.73147L16.9691 7.73152ZM21.4016 19.7968L20.5609 19.0855C20.6907 19.041 20.8159 18.9865 20.9348 18.9218H21.4015L21.4016 19.7968ZM18.1297 18.9218H18.5963C18.7153 18.9865 18.8405 19.041 18.9703 19.0855L18.1296 19.7968L18.1297 18.9218ZM19.7656 15.0079C20.7326 15.0079 21.5193 15.7946 21.5193 16.7616C21.5193 17.7285 20.7326 18.5153 19.7656 18.5153C18.7987 18.5153 18.012 17.7285 18.012 16.7616C18.012 15.7946 18.7987 15.0079 19.7656 15.0079ZM17.4067 16.0766C17.3434 16.2942 17.3088 16.5238 17.3088 16.7616C17.3088 17.3067 17.4875 17.8107 17.7891 18.2187H17.7786C17.7784 18.2187 17.7783 18.2187 17.7781 18.2187C17.7779 18.2187 17.7778 18.2187 17.7776 18.2187H17.436C16.7955 18.2187 16.2283 18.5368 15.8828 19.0229C15.5374 18.5368 14.9702 18.2187 14.3297 18.2187H13.9766C14.2782 17.8108 14.4569 17.3067 14.4569 16.7616C14.4569 16.5239 14.4223 16.2942 14.359 16.0766L17.4067 16.0766ZM10.364 18.9218H10.8307C10.9497 18.9865 11.0749 19.041 11.2046 19.0855L10.364 19.7967V18.9218ZM13.1693 18.9218H13.636V19.7968L12.7954 19.0856C12.9251 19.041 13.0503 18.9865 13.1693 18.9218ZM12 15.0079C12.967 15.0079 13.7537 15.7946 13.7537 16.7616C13.7537 17.7285 12.967 18.5153 12 18.5153C11.033 18.5153 10.2463 17.7285 10.2463 16.7616C10.2463 15.7946 11.033 15.0079 12 15.0079ZM9.64106 16.0766C9.57778 16.2942 9.54319 16.5238 9.54319 16.7616C9.54319 17.3067 9.72187 17.8107 10.0234 18.2187H9.67031C9.02986 18.2187 8.46267 18.5368 8.1172 19.0229C7.77173 18.5368 7.20455 18.2187 6.56409 18.2187H6.21094C6.51248 17.8107 6.69122 17.3066 6.69122 16.7615C6.69122 16.5238 6.65663 16.2941 6.59334 16.0765H9.64106V16.0766ZM7.76564 23.2969H5.57006L4.98098 20.319L5.50162 18.9218H6.56409C7.22662 18.9218 7.76564 19.4609 7.76564 20.1234V23.2969ZM4.092 19.938L3.80391 19.1798C3.94378 19.2047 4.08745 19.2184 4.23441 19.2184C4.37766 19.2184 4.51786 19.2053 4.65445 19.1817L4.37264 19.938H4.092ZM4.23436 15.0079C5.20134 15.0079 5.98805 15.7946 5.98805 16.7616C5.98805 17.7285 5.20134 18.5153 4.23436 18.5153C3.26738 18.5153 2.48067 17.7285 2.48067 16.7616C2.48067 15.7946 3.26742 15.0079 4.23436 15.0079ZM3.59869 23.2969L4.13695 20.6411H4.32792L4.8533 23.2969H3.59869ZM8.46877 20.1234C8.46877 19.464 9.00272 18.9271 9.66094 18.922V20.0494C9.66094 20.2801 9.79097 20.4838 10.0003 20.5809C10.0804 20.6181 10.1648 20.6362 10.2485 20.6362C10.3836 20.6362 10.5165 20.5887 10.6253 20.4967L12 19.3336L13.3747 20.4967C13.5509 20.6458 13.7904 20.678 13.9997 20.5809C14.2091 20.4838 14.3391 20.2801 14.3391 20.0494V18.922C14.9973 18.9271 15.5313 19.464 15.5313 20.1233V23.2969H8.46877V20.1234ZM16.2344 20.1234C16.2344 19.464 16.7683 18.9272 17.4265 18.9221V23.2969H16.2344V20.1234ZM18.1297 23.2969V20.7178L19.7656 19.3336L21.4016 20.7178V23.2969H18.1297Z" fill="black"/>
<path d="M19.7656 20.2402C19.5715 20.2402 19.4141 20.3976 19.4141 20.5918V20.6486C19.4141 20.8427 19.5715 21.0001 19.7656 21.0001C19.9598 21.0001 20.1172 20.8427 20.1172 20.6486V20.5918C20.1172 20.3976 19.9598 20.2402 19.7656 20.2402Z" fill="black"/>
<path d="M19.7656 21.6934C19.5715 21.6934 19.4141 21.8508 19.4141 22.0449V22.1017C19.4141 22.2958 19.5715 22.4532 19.7656 22.4532C19.9598 22.4532 20.1172 22.2958 20.1172 22.1017V22.0449C20.1172 21.8507 19.9598 21.6934 19.7656 21.6934Z" fill="black"/>
</g>
<defs>
<clipPath id="clip0_1_3699">
<rect width="24" height="24" fill="white"/>
</clipPath>
</defs>
</svg>
