<svg width="14" height="17" viewBox="0 0 14 17" fill="none" xmlns="http://www.w3.org/2000/svg">
<path d="M9.49546 0.950586C10.3417 1.66774 10.9276 2.6815 11.0269 3.79787C11.0491 4.11507 11.0559 4.4308 11.0547 4.74876C11.0546 4.7989 11.0546 4.84904 11.0545 4.89919C11.0544 5.02925 11.0541 5.1593 11.0537 5.28936C11.0533 5.42284 11.0532 5.55633 11.053 5.68981C11.0526 5.95031 11.052 6.2108 11.0513 6.4713C11.0721 6.47115 11.0929 6.471 11.1144 6.47084C11.1419 6.47073 11.1695 6.47061 11.1978 6.47049C11.225 6.47034 11.2522 6.47019 11.2803 6.47004C11.8285 6.47861 12.3718 6.71713 12.7705 7.0902C12.7961 7.114 12.8217 7.1378 12.8481 7.16232C13.2945 7.61553 13.4959 8.23616 13.4974 8.86219C13.4975 8.89903 13.4975 8.89903 13.4977 8.93661C13.498 9.0181 13.498 9.09959 13.4981 9.18108C13.4983 9.23985 13.4984 9.29862 13.4986 9.35739C13.4991 9.51653 13.4993 9.67568 13.4994 9.83483C13.4995 9.9345 13.4997 10.0342 13.4998 10.1338C13.5003 10.4464 13.5006 10.7589 13.5008 11.0714C13.5009 11.4309 13.5015 11.7904 13.5025 12.1499C13.5033 12.4286 13.5036 12.7073 13.5037 12.986C13.5037 13.152 13.5039 13.3181 13.5045 13.4841C13.5051 13.6406 13.5051 13.797 13.5048 13.9535C13.5048 14.0105 13.505 14.0675 13.5053 14.1245C13.5079 14.5888 13.4911 15.0794 13.2605 15.4948C13.2484 15.5176 13.2363 15.5404 13.2238 15.5639C12.9311 16.102 12.4814 16.4819 11.9054 16.6876C11.6079 16.7723 11.3236 16.7915 11.0159 16.7912C10.9591 16.7913 10.9591 16.7913 10.9011 16.7915C10.7743 16.7918 10.6475 16.7919 10.5207 16.7919C10.4297 16.7921 10.3387 16.7922 10.2477 16.7924C10.0005 16.7929 9.75333 16.7931 9.50617 16.7932C9.35164 16.7933 9.19711 16.7935 9.04258 16.7936C8.61418 16.7941 8.18578 16.7944 7.75738 16.7945C7.72999 16.7945 7.70259 16.7945 7.67437 16.7946C7.64691 16.7946 7.61946 16.7946 7.59117 16.7946C7.53554 16.7946 7.4799 16.7946 7.42427 16.7946C7.38288 16.7946 7.38288 16.7946 7.34065 16.7946C6.89399 16.7948 6.44734 16.7954 6.00068 16.7962C5.54138 16.797 5.08208 16.7974 4.62278 16.7975C4.36519 16.7975 4.10761 16.7977 3.85003 16.7983C3.63059 16.7989 3.41115 16.799 3.19171 16.7987C3.07995 16.7986 2.96819 16.7987 2.85643 16.7991C1.72885 16.8032 1.72885 16.8032 1.27564 16.5564C1.25279 16.5444 1.22994 16.5324 1.2064 16.52C0.671399 16.23 0.284196 15.7705 0.0901864 15.1926C-0.00178919 14.87 -0.000399974 14.5595 0.000846678 14.2272C0.000706649 14.1641 0.000522845 14.1011 0.000298941 14.038C-0.000168615 13.8678 9.63165e-06 13.6976 0.000337766 13.5273C0.000600305 13.3486 0.000356618 13.1698 0.00019506 12.991C7.79966e-06 12.6909 0.00025366 12.3908 0.000745945 12.0907C0.00130723 11.7445 0.00112489 11.3983 0.00055707 11.0521C8.78309e-05 10.7541 2.4308e-05 10.456 0.000293695 10.1579C0.00045388 9.98022 0.000477729 9.80257 0.00013525 9.62492C-0.000164388 9.45784 4.68815e-05 9.29077 0.000639965 9.12369C0.000775469 9.06265 0.000738852 9.00161 0.000509851 8.94057C-0.00190359 8.2315 0.163453 7.64857 0.667481 7.12458C1.10496 6.7049 1.68787 6.46814 2.2921 6.47062C2.33811 6.47077 2.33811 6.47077 2.38505 6.47092C2.40827 6.47104 2.4315 6.47117 2.45543 6.4713C2.45512 6.43879 2.45482 6.40629 2.4545 6.3728C2.45169 6.06335 2.44964 5.7539 2.4483 5.44444C2.44759 5.28542 2.44663 5.12641 2.44505 4.9674C2.43258 3.67449 2.56358 2.54476 3.41817 1.52006C3.4429 1.49006 3.46763 1.46005 3.49311 1.42914C4.99045 -0.312278 7.73339 -0.450665 9.49546 0.950586ZM4.69036 1.8639C4.64901 1.89714 4.64901 1.89714 4.60682 1.93105C4.03992 2.40788 3.71049 3.1013 3.59008 3.82376C3.59008 4.69745 3.59008 5.57114 3.59008 6.4713C5.67785 6.4713 7.76562 6.4713 9.91666 6.4713C10.009 4.92819 10.009 4.92819 9.75334 3.25858C9.73969 3.22014 9.73969 3.22014 9.72577 3.18093C9.4413 2.40368 8.86116 1.77952 8.11582 1.42336C7.00124 0.912644 5.63071 1.07099 4.69036 1.8639ZM1.4583 7.94979C1.25006 8.20605 1.13614 8.46834 1.13552 8.80003C1.13534 8.8253 1.13515 8.85057 1.13496 8.8766C1.13447 8.96048 1.13471 9.04434 1.13496 9.12822C1.13476 9.18867 1.13452 9.24913 1.13424 9.30959C1.13363 9.47327 1.13367 9.63694 1.13386 9.80062C1.13397 9.9375 1.13376 10.0744 1.13355 10.2113C1.13307 10.5343 1.13312 10.8574 1.13351 11.1804C1.13391 11.5132 1.13343 11.8459 1.1325 12.1786C1.13174 12.4648 1.13151 12.751 1.13172 13.0371C1.13183 13.2078 1.13175 13.3785 1.13116 13.5492C1.13062 13.7098 1.13076 13.8704 1.13141 14.031C1.13153 14.0897 1.13143 14.1484 1.13107 14.2072C1.12859 14.6441 1.17638 15.0139 1.49269 15.3423C1.80569 15.6119 2.16937 15.6675 2.57075 15.6648C2.62689 15.665 2.62689 15.665 2.68417 15.6653C2.80859 15.6657 2.933 15.6654 3.05742 15.6651C3.14702 15.6652 3.23663 15.6654 3.32623 15.6656C3.54374 15.6661 3.76124 15.666 3.97875 15.6657C4.15561 15.6654 4.33246 15.6654 4.50932 15.6655C4.54717 15.6655 4.54717 15.6655 4.58578 15.6656C4.63705 15.6656 4.68832 15.6656 4.73959 15.6657C5.21959 15.666 5.69958 15.6656 6.17957 15.6651C6.59092 15.6646 7.00227 15.6647 7.41362 15.6652C7.89202 15.6657 8.37043 15.6659 8.84883 15.6656C8.8999 15.6656 8.95096 15.6655 9.00203 15.6655C9.02715 15.6655 9.05227 15.6655 9.07815 15.6655C9.2547 15.6654 9.43124 15.6655 9.60778 15.6658C9.84561 15.6661 10.0834 15.6659 10.3213 15.6653C10.4084 15.6651 10.4956 15.6652 10.5828 15.6654C10.702 15.6657 10.8212 15.6653 10.9404 15.6648C10.9919 15.6652 10.9919 15.6652 11.0444 15.6655C11.4363 15.6622 11.7648 15.5525 12.0476 15.2758C12.3636 14.9094 12.3782 14.4592 12.3757 13.9993C12.3759 13.9417 12.3761 13.8841 12.3764 13.8265C12.377 13.6713 12.3768 13.5162 12.3764 13.361C12.376 13.1979 12.3763 13.0347 12.3766 12.8715C12.3768 12.5977 12.3765 12.3238 12.3758 12.0499C12.3751 11.7343 12.3753 11.4186 12.3761 11.103C12.3767 10.8309 12.3768 10.5589 12.3764 10.2868C12.3762 10.1247 12.3762 9.96272 12.3766 9.80068C12.377 9.64828 12.3768 9.49589 12.376 9.34348C12.3758 9.28789 12.3758 9.2323 12.3761 9.17671C12.3783 8.74333 12.343 8.32377 12.0475 7.98189C11.724 7.66479 11.3443 7.58995 10.9036 7.59262C10.8664 7.59244 10.8292 7.59225 10.7908 7.59206C10.6671 7.59157 10.5434 7.59182 10.4197 7.59206C10.3306 7.59186 10.2415 7.59163 10.1524 7.59135C9.93614 7.59076 9.71984 7.59073 9.50354 7.59091C9.3276 7.59105 9.15167 7.591 8.97573 7.59081C8.95062 7.59079 8.92551 7.59076 8.89965 7.59073C8.84863 7.59068 8.79761 7.59063 8.74659 7.59057C8.26891 7.5901 7.79122 7.59029 7.31354 7.59068C6.87729 7.59103 6.44105 7.59058 6.00481 7.58976C5.55599 7.58892 5.10718 7.58859 4.65836 7.58882C4.40674 7.58894 4.15512 7.58886 3.9035 7.58826C3.66682 7.5877 3.43016 7.58786 3.19349 7.58851C3.10685 7.58864 3.02021 7.58853 2.93357 7.58817C2.13305 7.56706 2.13305 7.56706 1.4583 7.94979Z" fill="#707070"/>
<path d="M7.26604 9.91454C7.46521 10.0906 7.56551 10.2369 7.59707 10.5007C7.60434 10.6844 7.60562 10.8675 7.60442 11.0513C7.60454 11.1194 7.60472 11.1875 7.60496 11.2556C7.60523 11.3979 7.60484 11.5402 7.60396 11.6825C7.60289 11.8643 7.6035 12.0459 7.60463 12.2277C7.60531 12.3682 7.60509 12.5087 7.6046 12.6492C7.60448 12.7162 7.60463 12.7832 7.60507 12.8501C7.60839 13.5003 7.60839 13.5003 7.39201 13.7759C7.1786 13.9645 6.96893 14.0225 6.68889 14.0102C6.44327 13.9366 6.29026 13.8319 6.12639 13.6352C6.03707 13.454 6.02041 13.3058 6.01902 13.1048C6.01842 13.046 6.01782 12.9872 6.01721 12.9265C6.01706 12.8627 6.01696 12.7988 6.01689 12.7349C6.01659 12.6689 6.01627 12.6029 6.01595 12.5368C6.01538 12.3986 6.01521 12.2603 6.01527 12.122C6.01528 11.9457 6.014 11.7693 6.01238 11.593C6.01133 11.4566 6.01115 11.3202 6.0112 11.1839C6.01109 11.1189 6.01068 11.0539 6.00995 10.9889C6.00618 10.6181 6.01127 10.3393 6.22014 10.0259C6.54852 9.75906 6.88649 9.72835 7.26604 9.91454Z" fill="#707070"/>
</svg>
