<svg width="18" height="14" viewBox="0 0 18 14" fill="none" xmlns="http://www.w3.org/2000/svg">
<path d="M17.8929 1.89783C17.8183 1.52109 17.6502 1.16502 17.405 0.865662C17.3552 0.802813 17.3031 0.7469 17.2461 0.690182C16.8098 0.251571 16.2029 0 15.581 0H2.35575C1.72687 0 1.13541 0.24523 0.690322 0.690427C0.633989 0.74662 0.581755 0.803093 0.530047 0.867939C0.285868 1.16603 0.118516 1.52162 0.0457529 1.89889C0.0153444 2.04704 0 2.20055 0 2.35585V11.6444C0 11.9675 0.0656516 12.2822 0.195799 12.5813C0.308429 12.847 0.479319 13.0988 0.690182 13.3096C0.743292 13.3624 0.796051 13.4112 0.852384 13.4587C1.27397 13.8079 1.8078 14 2.35575 14H15.581C16.1325 14 16.6658 13.8071 17.0863 13.4549C17.1424 13.4094 17.1945 13.3617 17.2466 13.3096C17.4505 13.106 17.6124 12.872 17.7289 12.614L17.7442 12.5772C17.872 12.2838 17.9368 11.9701 17.9368 11.6444V2.35585C17.9368 2.20258 17.922 2.04805 17.8929 1.89783ZM1.21995 1.50347C1.25327 1.4547 1.29579 1.40464 1.35006 1.34996C1.61943 1.08073 1.97666 0.932574 2.35571 0.932574H15.581C15.9633 0.932574 16.3207 1.08097 16.5871 1.35048C16.6331 1.39697 16.677 1.44857 16.7153 1.50014L16.8165 1.63607L9.75735 7.7884C9.53972 7.97919 9.25953 8.08418 8.9683 8.08418C8.67995 8.08418 8.4 7.97943 8.17978 7.78864L1.12771 1.63782L1.21995 1.50347ZM0.937304 11.7264C0.933485 11.7011 0.932609 11.673 0.932609 11.6444V2.54818L6.4107 7.32705L0.987891 12.0551L0.937304 11.7264ZM16.2867 12.8799C16.0747 13.0022 15.8305 13.0671 15.581 13.0671H2.35575C2.10607 13.0671 1.862 13.0022 1.65012 12.8799L1.42843 12.7514L7.03144 7.86855L7.6455 8.40266C8.01383 8.72244 8.48355 8.89873 8.96837 8.89873C9.45498 8.89873 9.92547 8.72244 10.2936 8.40266L10.9074 7.86831L16.5085 12.7517L16.2867 12.8799ZM17.004 11.6444C17.004 11.6725 17.0034 11.7003 16.9999 11.7251L16.9513 12.0569L11.5262 7.32961L17.004 2.5505V11.6444Z" fill="#707070"/>
</svg>
