<svg width="24" height="24" viewBox="0 0 24 24" fill="none" xmlns="http://www.w3.org/2000/svg">
<g clip-path="url(#clip0_1_3657)">
<path d="M8.96072 5.76123H7.35183C5.67328 5.76123 4.3125 7.12196 4.3125 8.80056V12.6095H12V8.80061C12 7.12201 10.6393 5.76123 8.96072 5.76123Z" fill="white"/>
<path d="M8.15606 1.73438C7.1452 1.73438 6.32568 2.55384 6.32568 3.56475V3.93084C6.32568 4.9417 7.14515 5.76122 8.15606 5.76122C9.16692 5.76122 9.98643 4.94175 9.98643 3.93084V3.56475C9.98643 2.55384 9.16692 1.73438 8.15606 1.73438Z" fill="#FFB888"/>
<path d="M16.6482 5.76123H15.0393C13.3608 5.76123 12 7.12196 12 8.80056V12.6095H19.6875V8.80061C19.6875 7.12201 18.3268 5.76123 16.6482 5.76123Z" fill="#FFCF5C"/>
<path d="M15.8436 1.73438C14.8327 1.73438 14.0132 2.55384 14.0132 3.56475V3.93084C14.0132 4.9417 14.8327 5.76122 15.8436 5.76122C16.8544 5.76122 17.6739 4.94175 17.6739 3.93084V3.56475C17.6739 2.55384 16.8544 1.73438 15.8436 1.73438Z" fill="#FFD1C8"/>
<path d="M5.11692 10.1143H3.50808C1.82948 10.1143 0.46875 11.475 0.46875 13.1536V14.1411H8.15625V13.1536C8.15625 11.475 6.79552 10.1143 5.11692 10.1143Z" fill="#FF7D99"/>
<path d="M4.31231 6.0874C3.30145 6.0874 2.48193 6.90687 2.48193 7.91778V8.28387C2.48193 9.29473 3.3014 10.1142 4.31231 10.1142C5.32317 10.1142 6.14268 9.29478 6.14268 8.28387V7.91778C6.14268 6.90692 5.32317 6.0874 4.31231 6.0874Z" fill="#FFB888"/>
<path d="M12.8045 10.1143H11.1956C9.51703 10.1143 8.15625 11.475 8.15625 13.1536V14.1411H15.8438V13.1536C15.8438 11.475 14.4831 10.1143 12.8045 10.1143Z" fill="#33D7F6"/>
<path d="M11.9998 6.0874C10.9889 6.0874 10.1694 6.90687 10.1694 7.91778V8.28387C10.1694 9.29473 10.9889 10.1142 11.9998 10.1142C13.0107 10.1142 13.8302 9.29478 13.8302 8.28387V7.91778C13.8302 6.90692 13.0107 6.0874 11.9998 6.0874Z" fill="#FFD1C8"/>
<path d="M20.492 10.1143H18.8831C17.2045 10.1143 15.8438 11.475 15.8438 13.1536V14.1411H23.5312V13.1536C23.5313 11.475 22.1706 10.1143 20.492 10.1143Z" fill="#7AA9BF"/>
<path d="M19.6873 6.0874C18.6764 6.0874 17.8569 6.90687 17.8569 7.91778V8.28387C17.8569 9.29473 18.6764 10.1142 19.6873 10.1142C20.6982 10.1142 21.5177 9.29478 21.5177 8.28387V7.91778C21.5177 6.90692 20.6982 6.0874 19.6873 6.0874Z" fill="#FFCAA6"/>
<path d="M12 22.2655C14.6308 22.2655 16.7636 20.1328 16.7636 17.5019C16.7636 14.871 14.6308 12.7383 12 12.7383C9.36908 12.7383 7.23633 14.871 7.23633 17.5019C7.23633 20.1328 9.36908 22.2655 12 22.2655Z" fill="#FFCF5C"/>
<path d="M11.2143 16.3173L11.575 15.1956C11.7067 14.7862 12.2855 14.7855 12.4181 15.1945L12.7821 16.3173H13.9704C14.3998 16.3173 14.5781 16.8669 14.2305 17.1189L13.2719 17.814L13.6391 18.9335C13.7731 19.3418 13.3055 19.6826 12.9578 19.4299L12.0047 18.7372L11.0466 19.4353C10.6993 19.6882 10.2314 19.3485 10.3645 18.94L10.7319 17.8128L9.77143 17.1194C9.42296 16.8678 9.60095 16.3173 10.0307 16.3173H11.2143Z" fill="white"/>
<path d="M13.9705 15.8485H13.123L12.8641 15.0499C12.7399 14.6668 12.3996 14.4194 11.9969 14.4194C11.9965 14.4194 11.9961 14.4194 11.9958 14.4194C11.5925 14.4199 11.2523 14.6683 11.1289 15.0521L10.8728 15.8485H10.0308C9.62777 15.8485 9.28722 16.0963 9.16328 16.4798C9.0393 16.8633 9.17036 17.2636 9.49713 17.4994L10.1803 17.9927L9.91891 18.7947C9.79408 19.1778 9.92406 19.5782 10.25 19.8149C10.4128 19.9332 10.5993 19.9923 10.7858 19.9923C10.9727 19.9922 11.1597 19.9328 11.3227 19.8141L12.0051 19.3169L12.6823 19.8091C13.0083 20.046 13.4295 20.0458 13.7552 19.8084C14.0809 19.5711 14.2103 19.1703 14.0846 18.7873L13.8239 17.9927L14.5057 17.4984C14.8316 17.262 14.962 16.8619 14.8377 16.4789C14.7135 16.096 14.3731 15.8485 13.9705 15.8485ZM12.9968 17.4345C12.8318 17.5541 12.763 17.7665 12.8265 17.9601L13.1689 19.0038L12.2804 18.3581C12.1159 18.2384 11.893 18.2386 11.7288 18.3584L10.835 19.0095L11.1776 17.9581C11.2407 17.7644 11.1715 17.5521 11.0063 17.4328L10.1106 16.7861H11.2144C11.418 16.7861 11.5983 16.6546 11.6606 16.4608L11.9969 15.4152L12.3363 16.4619C12.399 16.6551 12.579 16.7861 12.7822 16.7861L13.891 16.7861L12.9968 17.4345Z" fill="black"/>
<path d="M21.4351 9.7755C21.7785 9.37364 21.9866 8.85281 21.9866 8.28403V7.91794C21.9866 6.6502 20.9553 5.61881 19.6875 5.61881C19.2968 5.61881 18.9288 5.71706 18.6062 5.8897C18.2947 5.68036 17.9511 5.52328 17.591 5.42264C17.9347 5.02073 18.1429 4.49977 18.1429 3.9307V3.56461C18.1428 2.29697 17.1115 1.26562 15.8438 1.26562C14.576 1.26562 13.5447 2.29697 13.5447 3.5647V3.9308C13.5447 4.49981 13.7529 5.02073 14.0965 5.42264C13.7364 5.52323 13.3931 5.68045 13.0815 5.88989C12.759 5.71716 12.3908 5.61891 12 5.61891C11.6093 5.61891 11.2412 5.71716 10.9186 5.88984C10.6071 5.6805 10.2636 5.52333 9.90347 5.42273C10.2472 5.02083 10.4554 4.49986 10.4554 3.93084V3.56475C10.4553 2.29697 9.42398 1.26562 8.15625 1.26562C6.88852 1.26562 5.85717 2.29697 5.85717 3.5647V3.9308C5.85717 4.49977 6.06539 5.02073 6.40903 5.42264C6.04894 5.52323 5.70567 5.6805 5.39409 5.88989C5.0715 5.71716 4.7033 5.61886 4.3125 5.61886C3.04477 5.61886 2.01342 6.65025 2.01342 7.91798V8.28408C2.01342 8.85286 2.2215 9.37369 2.56495 9.77555C1.08736 10.1886 0 11.5461 0 13.1537V14.1412C0 14.4 0.209859 14.6099 0.46875 14.6099H2.13642C2.39531 14.6099 2.60517 14.4 2.60517 14.1412C2.60517 13.8823 2.39531 13.6724 2.13642 13.6724H0.9375V13.1537C0.9375 11.7363 2.09067 10.5832 3.50808 10.5832H3.84375V11.1737C3.84375 11.4326 4.05361 11.6425 4.3125 11.6425C4.57139 11.6425 4.78125 11.4326 4.78125 11.1737V10.5832H5.11692C6.53433 10.5832 7.6875 11.7363 7.6875 13.1537V13.6724H6.35517C6.09628 13.6724 5.88642 13.8823 5.88642 14.1412C5.88642 14.4 6.09628 14.6099 6.35517 14.6099H7.6417C7.08975 15.4389 6.76758 16.4334 6.76758 17.5019C6.76758 20.3871 9.11484 22.7344 12 22.7344C14.8852 22.7344 17.2324 20.3871 17.2324 17.502C17.2324 16.4335 16.9102 15.439 16.3583 14.61H23.5312C23.7901 14.61 24 14.4 24 14.1412V13.1538C24 11.5461 22.9126 10.1886 21.4351 9.7755ZM18.3259 7.91798C18.3259 7.16719 18.9367 6.55636 19.6875 6.55636C20.4383 6.55636 21.0491 7.16719 21.0491 7.91798V8.28408C21.0491 9.03488 20.4383 9.6457 19.6875 9.6457C18.9367 9.6457 18.3259 9.03488 18.3259 8.28408V7.91798ZM14.4822 3.5647C14.4822 2.81391 15.093 2.20312 15.8438 2.20312C16.5945 2.20312 17.2053 2.81391 17.2053 3.5647V3.9308C17.2053 4.68159 16.5945 5.29242 15.8438 5.29242C15.093 5.29242 14.4822 4.68159 14.4822 3.9308V3.5647ZM13.8325 6.53147C14.2018 6.33534 14.6169 6.22988 15.0393 6.22988H15.375V6.82045C15.375 7.0793 15.5849 7.2892 15.8438 7.2892C16.1026 7.2892 16.3125 7.0793 16.3125 6.82045V6.22988H16.6482C17.0774 6.22988 17.4873 6.33305 17.8559 6.53039C17.5627 6.91631 17.3884 7.39711 17.3884 7.91798V8.28408C17.3884 8.85286 17.5965 9.37369 17.9399 9.77555C17.0473 10.0251 16.2977 10.6193 15.8438 11.4053C15.3898 10.6192 14.6402 10.0251 13.7476 9.77555C14.091 9.37369 14.2991 8.85286 14.2991 8.28408V7.91798C14.2991 7.39758 14.1251 6.91725 13.8325 6.53147ZM12 11.6425C12.2589 11.6425 12.4688 11.4326 12.4688 11.1737V10.5832H12.8044C14.2218 10.5832 15.375 11.7363 15.375 13.1537V13.507C14.4632 12.7356 13.2851 12.2696 12 12.2696C10.7149 12.2696 9.53677 12.7355 8.625 13.507V13.1537C8.625 11.7363 9.77817 10.5832 11.1956 10.5832H11.5312V11.1737C11.5312 11.4326 11.7411 11.6425 12 11.6425ZM10.6384 7.91798C10.6384 7.16719 11.2492 6.55636 12 6.55636C12.7508 6.55636 13.3616 7.16719 13.3616 7.91798V8.28408C13.3616 9.03488 12.7508 9.6457 12 9.6457C11.2492 9.6457 10.6384 9.03488 10.6384 8.28408V7.91798ZM6.79467 3.5647C6.79467 2.81391 7.40545 2.20312 8.15625 2.20312C8.90705 2.20312 9.51783 2.81391 9.51783 3.5647V3.9308C9.51783 4.68159 8.907 5.29242 8.15625 5.29242C7.4055 5.29242 6.79467 4.68159 6.79467 3.9308V3.5647ZM5.67408 8.28408C5.67408 9.03488 5.06325 9.6457 4.3125 9.6457C3.56175 9.6457 2.95092 9.03488 2.95092 8.28408V7.91798C2.95092 7.16719 3.56175 6.55636 4.3125 6.55636C5.06325 6.55636 5.67408 7.16719 5.67408 7.91798V8.28408ZM6.06009 9.7755C6.40355 9.37364 6.61163 8.85281 6.61163 8.28403V7.91794C6.61163 7.39753 6.43758 6.91716 6.14503 6.53142C6.51436 6.3353 6.92939 6.22983 7.35187 6.22983H7.6875V6.82041C7.6875 7.07925 7.89736 7.28916 8.15625 7.28916C8.41514 7.28916 8.625 7.07925 8.625 6.82041V6.22983H8.96067C9.38995 6.22983 9.79988 6.333 10.1684 6.5303C9.87525 6.91622 9.70087 7.39702 9.70087 7.91794V8.28403C9.70087 8.85281 9.90895 9.37364 10.2524 9.7755C9.35981 10.0251 8.61023 10.6192 8.15625 11.4052C7.70227 10.6192 6.95269 10.0251 6.06009 9.7755ZM12 21.7969C9.63178 21.7969 7.70508 19.8702 7.70508 17.502C7.70508 15.1338 9.63178 13.2071 12 13.2071C14.3682 13.2071 16.2949 15.1338 16.2949 17.502C16.2949 19.8702 14.3682 21.7969 12 21.7969ZM23.0625 13.6725H16.3125V13.1538C16.3125 11.7364 17.4657 10.5832 18.8831 10.5832H19.2188V11.1738C19.2188 11.4326 19.4286 11.6425 19.6875 11.6425C19.9464 11.6425 20.1562 11.4326 20.1562 11.1738V10.5832H20.4919C21.9093 10.5832 23.0625 11.7364 23.0625 13.1538V13.6725Z" fill="black"/>
<path d="M4.24609 14.6099C4.50498 14.6099 4.71484 14.4 4.71484 14.1411C4.71484 13.8822 4.50498 13.6724 4.24609 13.6724C3.98721 13.6724 3.77734 13.8822 3.77734 14.1411C3.77734 14.4 3.98721 14.6099 4.24609 14.6099Z" fill="black"/>
</g>
<defs>
<clipPath id="clip0_1_3657">
<rect width="24" height="24" fill="white"/>
</clipPath>
</defs>
</svg>
