<svg width="24" height="24" viewBox="0 0 24 24" fill="none" xmlns="http://www.w3.org/2000/svg">
<g clip-path="url(#clip0_1_3792)">
<path d="M12 12.7031C9.28593 12.7031 7.07812 14.9109 7.07812 17.625V19.0312C7.07812 19.425 7.38745 19.7344 7.78125 19.7344H16.2187C16.6125 19.7344 16.9219 19.425 16.9219 19.0312V17.625C16.9219 14.9109 14.714 12.7031 12 12.7031Z" fill="#1689FC"/>
<path d="M16.9219 17.625V19.0312C16.9219 19.425 16.6125 19.7344 16.2187 19.7344H12V12.7031C14.7141 12.7031 16.9219 14.9109 16.9219 17.625Z" fill="#415BE8"/>
<path d="M12 7.07812C10.0594 7.07812 8.48438 8.65312 8.48438 10.5937C8.48438 12.5344 10.0594 14.1094 12 14.1094C13.9406 14.1094 15.5156 12.5344 15.5156 10.5937C15.5156 8.65312 13.9406 7.07812 12 7.07812Z" fill="#17ACE8"/>
<path d="M15.5156 10.5937C15.5156 12.5344 13.9406 14.1094 12 14.1094V7.07812C13.9406 7.07812 15.5156 8.65312 15.5156 10.5937Z" fill="#1689FC"/>
<path d="M23.5218 9.93275L22.2515 9.52498C21.9983 8.45623 21.5765 7.44378 21 6.5015L21.5765 5.34838C21.7171 5.08119 21.6608 4.7578 21.4499 4.54691L19.4531 2.54995C19.2422 2.33906 18.9187 2.28276 18.6515 2.42343L17.4984 2.99995C16.6406 2.47964 15.7125 2.08593 14.7281 1.81875L14.039 0.393702C13.9125 0.154687 13.6734 0 13.4062 0H10.5937C10.3265 0 10.0875 0.154687 9.96092 0.393702L9.27186 1.81875C8.28748 2.08593 7.35936 2.47964 6.5016 2.99995L5.34847 2.42343C5.08129 2.28276 4.7578 2.33906 4.54691 2.54995L2.55004 4.54687C2.33906 4.75776 2.28286 5.08115 2.42343 5.34833L2.99995 6.50146C2.47964 7.35936 2.08593 8.28748 1.81875 9.27186L0.393796 9.96092C0.154687 10.0875 0 10.3265 0 10.5937V13.4062C0 13.6734 0.154687 13.9125 0.393796 14.039L1.81875 14.7281C2.05776 15.614 2.40932 16.4718 2.87343 17.2734L2.3812 18.7359C2.29682 18.989 2.36723 19.2702 2.55004 19.453L4.54687 21.4499C4.72968 21.6327 5.01097 21.703 5.26405 21.6187L6.72655 21.1265C7.61249 21.6328 8.55467 22.0125 9.52498 22.2515L9.93284 23.5218C10.0172 23.8031 10.2844 24 10.5937 24H13.4062C13.7156 24 13.9827 23.8031 14.0671 23.5218L14.475 22.2515C15.4453 22.0125 16.3875 21.6328 17.2734 21.1265L18.7359 21.6187C18.989 21.703 19.2702 21.6327 19.453 21.4499L21.4499 19.4531C21.6327 19.2703 21.7031 18.989 21.6188 18.7359L21.1265 17.2734C21.6328 16.3875 22.0125 15.4453 22.2515 14.475L23.5218 14.0671C23.8031 13.9827 24 13.7156 24 13.4062V10.5937C24 10.2843 23.8031 10.0171 23.5218 9.93275ZM12 19.0312C8.11873 19.0312 4.96874 15.8812 4.96874 12C4.96874 8.11873 8.11873 4.96874 12 4.96874C15.8812 4.96874 19.0312 8.11873 19.0312 12C19.0312 15.8812 15.8812 19.0312 12 19.0312Z" fill="#CAE8F9"/>
<path d="M24 10.5937V13.4062C24 13.7156 23.8031 13.9827 23.5218 14.0671L22.2515 14.475C22.0125 15.4453 21.6327 16.3875 21.1265 17.2734L21.6187 18.7359C21.7031 18.989 21.6327 19.2702 21.4499 19.453L19.4531 21.4499C19.2703 21.6327 18.989 21.703 18.7359 21.6187L17.2734 21.1265C16.3875 21.6328 15.4453 22.0125 14.475 22.2515L14.0671 23.5218C13.9828 23.8031 13.7156 24 13.4062 24H12V19.0312C15.8812 19.0312 19.0312 15.8812 19.0312 12C19.0312 8.11873 15.8812 4.96874 12 4.96874V0H13.4062C13.6734 0 13.9125 0.154687 14.0391 0.393702L14.7281 1.81875C15.7125 2.08593 16.6406 2.47964 17.4984 2.99995L18.6515 2.42343C18.9187 2.28276 19.2422 2.33906 19.4531 2.54995L21.4499 4.54687C21.6609 4.75776 21.7171 5.08115 21.5765 5.34833L21 6.50146C21.5765 7.44369 21.9984 8.45614 22.2515 9.52494L23.5219 9.9327C23.8031 10.0171 24 10.2843 24 10.5937Z" fill="#B7E0F6"/>
<path d="M12 4.26562C7.73901 4.26562 4.26562 7.73901 4.26562 12C4.26562 16.2609 7.73901 19.7343 12 19.7343C16.261 19.7343 19.7343 16.2609 19.7343 12C19.7343 7.73901 16.261 4.26562 12 4.26562ZM12 18.3281C8.51254 18.3281 5.67187 15.4874 5.67187 12C5.67187 8.51244 8.51254 5.67187 12 5.67187C15.4874 5.67187 18.3281 8.51244 18.3281 12C18.3281 15.4874 15.4874 18.3281 12 18.3281Z" fill="#B7E0F6"/>
<path d="M19.7344 12C19.7344 16.2609 16.261 19.7343 12 19.7343V18.3281C15.4874 18.3281 18.3281 15.4874 18.3281 12C18.3281 8.51244 15.4874 5.67187 12 5.67187V4.26562C16.261 4.26562 19.7344 7.73901 19.7344 12Z" fill="#A4D9F5"/>
</g>
<defs>
<clipPath id="clip0_1_3792">
<rect width="24" height="24" fill="white"/>
</clipPath>
</defs>
</svg>
