<svg width="64" height="64" viewBox="0 0 64 64" fill="none" xmlns="http://www.w3.org/2000/svg">
<rect width="64" height="64" rx="32" fill="#012356"/>
<path d="M43.25 20.4688L32 15.4062L20.75 20.4688C20.1533 20.4688 19.581 20.7058 19.159 21.1278C18.7371 21.5497 18.5 22.122 18.5 22.7188V30.5938C18.5 38.0075 22.0888 42.5005 25.0995 44.9642C28.3423 47.6164 31.5683 48.5164 31.7089 48.5544C31.9023 48.607 32.1062 48.607 32.2995 48.5544C32.4402 48.5164 35.6619 47.6164 38.9089 44.9642C41.9113 42.5005 45.5 38.0075 45.5 30.5938V22.7188C45.5 22.122 45.2629 21.5497 44.841 21.1278C44.419 20.7058 43.8467 20.4688 43.25 20.4688ZM43.25 30.5938C43.25 35.8067 41.3291 40.0381 37.5406 43.1684C35.8915 44.5265 34.0159 45.5833 32 46.2903C30.0104 45.5956 28.1581 44.5575 26.5269 43.2233C22.6934 40.0873 20.75 35.8391 20.75 30.5938V22.7188L32 18.2188L43.25 22.7188V30.5938ZM25.5791 34.7647C25.368 34.5536 25.2494 34.2673 25.2494 33.9688C25.2494 33.6702 25.368 33.3839 25.5791 33.1728C25.7902 32.9617 26.0765 32.8431 26.375 32.8431C26.6735 32.8431 26.9598 32.9617 27.1709 33.1728L29.75 35.7533L36.8291 28.6728C36.9336 28.5683 37.0577 28.4854 37.1942 28.4288C37.3308 28.3722 37.4772 28.3431 37.625 28.3431C37.7728 28.3431 37.9192 28.3722 38.0558 28.4288C38.1923 28.4854 38.3164 28.5683 38.4209 28.6728C38.5255 28.7773 38.6084 28.9014 38.6649 29.038C38.7215 29.1746 38.7506 29.3209 38.7506 29.4688C38.7506 29.6166 38.7215 29.7629 38.6649 29.8995C38.6084 30.0361 38.5255 30.1602 38.4209 30.2647L30.5459 38.1397C30.4415 38.2443 30.3174 38.3273 30.1808 38.3839C30.0442 38.4405 29.8978 38.4696 29.75 38.4696C29.6022 38.4696 29.4558 38.4405 29.3192 38.3839C29.1826 38.3273 29.0585 38.2443 28.9541 38.1397L25.5791 34.7647Z" fill="white"/>
</svg>
