<svg width="48" height="48" viewBox="0 0 48 48" fill="none" xmlns="http://www.w3.org/2000/svg">
<path d="M0 8C0 3.58172 3.58172 0 8 0H40C44.4183 0 48 3.58172 48 8V40C48 44.4183 44.4183 48 40 48H8C3.58172 48 0 44.4183 0 40V8Z" fill="#DCFCE7"/>
<path d="M23.5621 15.2662C23.6052 15.1878 23.6686 15.1224 23.7457 15.0769C23.8227 15.0313 23.9106 15.0073 24.0001 15.0073C24.0895 15.0073 24.1774 15.0313 24.2544 15.0769C24.3315 15.1224 24.3949 15.1878 24.4381 15.2662L27.3901 20.8702C27.4605 20.9999 27.5587 21.1125 27.6778 21.1998C27.7968 21.2871 27.9337 21.3469 28.0787 21.375C28.2236 21.4031 28.3729 21.3988 28.516 21.3623C28.659 21.3259 28.7923 21.2582 28.9061 21.1642L33.1831 17.5002C33.2652 17.4334 33.3663 17.3944 33.472 17.3888C33.5777 17.3832 33.6824 17.4112 33.7712 17.4689C33.8599 17.5266 33.928 17.611 33.9657 17.7099C34.0034 17.8087 34.0088 17.917 33.9811 18.0192L31.1471 28.2652C31.0892 28.4748 30.9646 28.6599 30.7921 28.7924C30.6195 28.9248 30.4086 28.9974 30.1911 28.9992H17.8101C17.5924 28.9977 17.3812 28.9252 17.2084 28.7927C17.0357 28.6602 16.911 28.475 16.8531 28.2652L14.0201 18.0202C13.9923 17.918 13.9977 17.8097 14.0354 17.7109C14.0731 17.612 14.1412 17.5276 14.23 17.4699C14.3187 17.4122 14.4234 17.3842 14.5291 17.3898C14.6348 17.3954 14.736 17.4344 14.8181 17.5012L19.0941 21.1652C19.2079 21.2592 19.3411 21.3269 19.4841 21.3633C19.6272 21.3998 19.7765 21.4041 19.9215 21.376C20.0664 21.3479 20.2033 21.2881 20.3224 21.2008C20.4414 21.1135 20.5397 21.0009 20.6101 20.8712L23.5621 15.2662Z" stroke="#FFD700" stroke-width="2" stroke-linecap="round" stroke-linejoin="round"/>
<path d="M17 33H31" stroke="#FFD700" stroke-width="2" stroke-linecap="round" stroke-linejoin="round"/>
</svg>
